<?xml version="1.0" encoding="utf-8"?>
<!-- Generator: Adobe Illustrator 24.1.0, SVG Export Plug-In . SVG Version: 6.00 Build 0)  -->
<svg version="1.1" xmlns="http://www.w3.org/2000/svg" xmlns:xlink="http://www.w3.org/1999/xlink" x="0px" y="0px"
	 viewBox="0 0 600 600" style="enable-background:new 0 0 600 600;" xml:space="preserve">
<g id="Layer_2">
</g>
<g id="Layer_1">
	<path d="M600,600H0V0h600V600z M600,325.1v-66.9c-4.1,8.8-8.9,16.2-13.3,19.4c-2.5,1.8-5.4,4.1-9.1,7c-2.1,1.7-4.2,3.3-6.2,5
		l-1.3,1c-1.6,1.3-3.2,2.6-4.9,3.9c-7.5,6-12.9,10-17.5,13.1c-3.2,2.1-4,2.9-8.2,7.3c-5.7,5.9-11.3,8.3-28.6,10.6
		c-11.4,1.5-20.3,5-31.1,11.2c-1.7,0.9-7.3,4.3-7,4.1c-2.7,1.6-4.6,2.7-6.6,3.6c-5.5,2.7-10.2,4.1-15.3,4.1
		c-17.4,0-42,11.6-52.4,23.2c-11.9,13.3-31.1,27.4-44.8,30.8c-7.8,2-12.5,7.4-14.8,15.4c-1.3,4.5-1.6,8.5-1.6,14.1
		c0,0.9,0,1,0.2,3.7c0.4,5.1,0.4,8.5-0.7,12.9c-1.5,6-4.8,12.3-10.4,19c-14,16.9-23.1,47-23.1,72.3c0,2.4,0,4.3,0.1,8.8
		c0.1,10.8,0.1,15.8-0.2,21.9c-0.6,11.2-2.1,20.8-5,29.3h1c2.9-8.6,4.4-18.1,5-29.3c0.3-6.2,0.3-11.2,0.2-22c0-4.5-0.1-6.4-0.1-8.8
		c0-25.1,9-55,22.9-71.7c5.7-6.8,9.1-13.2,10.6-19.4c1.1-4.5,1.2-8.1,0.8-13.3c-0.2-2.6-0.2-2.8-0.2-3.6c0-5.5,0.3-9.4,1.6-13.8
		c2.2-7.6,6.6-12.8,14-14.7c13.8-3.5,33.2-17.8,45.3-31.2c10.2-11.3,34.5-22.8,51.6-22.8c5.2,0,10.1-1.4,15.7-4.2
		c2-1,3.9-2.1,6.6-3.7c-0.3,0.2,5.3-3.2,7-4.1c10.7-6.2,19.5-9.6,30.8-11.1c17.4-2.3,23.3-4.9,29.1-11c4.2-4.4,5-5.1,8.1-7.1
		c4.7-3.1,10.1-7.2,17.6-13.2c1.6-1.3,3.2-2.6,4.9-3.9l1.3-1c2.1-1.7,4.1-3.3,6.2-5c3.7-2.9,6.5-5.1,9-6.9c4.2-3,8.7-9.8,12.7-17.9
		V325.1c-6.3,3.7-12.6,7.4-14.2,8.3c-10.5,6.5-18.4,12.5-24.5,18.9c-5.7,6.1-12.7,10.3-22.8,14.4c-1.5,0.6-3,1.2-4.8,1.9l-4.8,1.8
		c-9.7,3.7-14.6,6.2-18.7,9.9c-4.4,4-9.9,6.8-17.1,9c-2,0.6-4,1.2-6.5,1.8l-6.1,1.5c-5.2,1.3-8.1,2.3-10.3,3.6
		c-3.2,2-6.8,3.4-13,5.1l-2.4,0.7c-2.5,0.7-5.1,1.4-7.6,2.2c-4,1.3-7.6,2.5-11.1,4c-2.5,1.1-5.2,3.7-8.4,8.1c-2.1,3-4.2,6-6.1,9.1
		c-5.8,9.1-7.6,11.8-10.4,14.7c-1.4,1.5-3,2.9-4.7,4.3c-2.4,1.9-10.4,7.6-11.8,8.7c-1.6,1.4-2.8,2.6-3.4,3.9
		c-1.2,2.2-1.8,4.4-2.7,8.6c-2.2,10.7-3.6,15-8.3,22.4c-4.1,6.4-6.9,10-10,13.1c-0.5,0.5-1,1-1.5,1.5c-0.6,0.6-3.1,3-3.8,3.6
		c-1.6,1.6-3.2,3.1-4.8,4.9c-4.5,4.7-7.8,10.4-9.6,16.5c-2.5,8-2.7,15.2-1.7,26.8c0.5,5.9,0.5,6.4,0.5,8.3c0,15.2,0.4,27.4,1.5,37
		h-0.9c-0.4-3.4-0.7-7.2-1-11.2c-0.5-8.3-0.6-15.3-0.6-25.8c0-1.8,0-2.4-0.5-8.2c-1-11.8-0.7-19.1,1.8-27.2
		c1.9-6.3,5.3-12.1,9.9-16.9c1.7-1.8,3.2-3.3,4.9-4.9l3.8-3.6c0.5-0.5,1-1,1.5-1.5c3-3.1,5.8-6.7,9.8-13c4.7-7.3,6-11.5,8.2-22.1
		c0.9-4.3,1.5-6.6,2.8-8.9c0.9-1.6,2.2-3,3.7-4.1c1.4-1.2,9.5-6.8,11.8-8.7c1.6-1.3,3.2-2.7,4.6-4.2c2.7-2.8,4.5-5.4,10.2-14.5
		c1.9-3.1,4-6.2,6.1-9.2c3.3-4.5,6.1-7.3,8.8-8.4c3.7-1.6,7.4-2.9,11.2-4c1.6-0.5,3.1-0.9,5.2-1.5c1.6-0.4,3.2-0.9,4.8-1.4
		c6.1-1.8,9.7-3.1,12.7-5c2.2-1.4,5.3-2.4,10.5-3.8l6.1-1.5c2.5-0.6,4.5-1.2,6.5-1.8c7.1-2.2,12.5-5,16.8-8.8
		c4.2-3.8,9.2-6.4,19-10.1l4.8-1.8c1.9-0.7,3.4-1.3,4.8-1.9c10-4.1,16.8-8.2,22.4-14.1c6.1-6.5,14.1-12.5,24.7-19.1
		c1.6-1,8.2-4.8,14.7-8.6L600,325.1L600,325.1z M600,208.9v-1c-0.6,0-1.3,0.1-2,0.1c-6.3,0.7-14.1,3.5-22.2,7.6
		c-3.5,1.7-8.2,2.6-13.7,2.6c-4.9,0-9.8-0.5-14.6-1.3c-1.7-0.3-3.2-0.6-4.6-0.9c-0.5-0.1-0.9-0.2-3.7-0.6
		c-5.6-0.5-11.1-0.8-16.7-0.9c-11.1-0.2-17.9,0.7-18.9,3.4c-0.6,1.5,0.5,3.3,3.3,5.9c1.3,1.2,2.7,2.4,4.1,3.6c1.6,1.3,3.2,2.7,4.8,4
		c1.5,1.3,3.4,2.1,5.9,2.7c0.9,0.2,1.8,0.4,2.7,0.6c3.3,0.7,4.7,1.2,5.6,2.3c1.1,1.4,1.1,3.9-0.3,7.9c-2.3,6.5-5.3,9.4-9.3,9.7
		c-3.4,0.2-7.2-1.3-14-4.9c-4.2-2.3-6.4-6.9-7.8-14.6c-0.2-0.9-0.3-1.8-0.5-2.8l-0.4-2.8c-1.1-7-2-9.7-4.3-10.9
		c-0.9-0.4-1.7-0.8-2.5-1c-2.4-0.8-4.8-1.1-8.5-1c-2.3,0.1-14.8,1-14.3,1c-20.3,1.3-28.8,5.1-37.3,15.3c-1.3,1.5-2.5,3.1-4.3,5.5
		l-2.3,3.1c-0.8,1.1-1.7,2.2-2.5,3.3c-4,5.3-6.9,8.3-10.2,10.9c-0.6,0.5-1.3,1-2.1,1.6l-4.1,2.9c-1.8,1.3-3.4,2.6-5.2,4
		c-4.6,3.8-9.8,8.7-16.3,15.5c-8.5,8.8-12.1,13.9-12,16.7c0.1,2.5,2,3,7.7,3.3c1.6,0.1,2.2,0.1,3,0.2c2.8,0.2,4.9,0.7,6.4,1.6
		c7.3,4.1,11.3,7.1,13.5,11.2c3,5.7,0.7,11.9-8.6,19c-8.5,6.5-11.5,10.8-11.7,15.7c0,1.5,0.1,3.1,0.3,4.6c0.7,6.3,0.3,10.3-2.7,16.9
		c-1.4,3.1-2.7,5.5-4.1,7.4c-2.7,3.8-5.2,5.4-10.1,7.3c-0.4,0.2-3.3,1.2-4.3,1.6c-1.8,0.7-3.4,1.4-5.1,2.2
		c-4.7,2.3-9.2,5.1-13.3,8.4c-8.6,6.7-13.5,14.9-16.3,25.6c-1.1,4.3-1.6,6.9-2.8,15.3c-1.3,8.5-2.1,12.5-4,16.3
		c-2.1,4.3-12,26.6-13,28.9c-2.3,5.1-4.4,9.5-6.4,13.4c-4,8-7.6,13.9-10.6,17.6c-5.5,6.6-9.1,14.6-14,28.7c-0.6,1.9-1.3,3.7-1.9,5.6
		c-1.3,4-2.7,7.9-4.2,11.8c-6,14.9-24.9,25.7-45.5,25.7c-11,0-20.2-2.7-30.5-8.4c-5.6-3.1-4.5-2.4-22.2-14.5
		c-14.8-10.1-18.6-11.2-21.8-6.7c-0.4,0.5-1.9,2.8-1.9,2.8c-1.5,2-3.1,4-4.8,5.8c-0.7,0.8-5.5,5.9-7,7.5c-2.4,2.6-4.3,4.8-6,7
		c-2,2.4-3.7,5.1-5.2,7.8c-1.3,2.7-2,5.5-2.8,10.9l-0.5,3.3h1c0.2-1.1,0.3-2.1,0.5-3.2c0.8-5.3,1.4-8,2.7-10.6
		c1.4-2.7,3.1-5.3,5.1-7.7c1.7-2.1,3.6-4.3,6-6.9c1.4-1.6,6.2-6.7,7-7.5c1.8-1.8,3.4-3.8,4.9-5.9c0,0,1.5-2.3,1.8-2.8
		c2.8-3.8,6.1-2.9,20.5,6.9c17.7,12.1,16.7,11.4,22.3,14.5c10.4,5.8,19.8,8.5,31,8.5c21,0,40.3-11,46.5-26.3
		c1.3-3.3,2.5-6.5,4.3-11.8c0.6-1.9,1.3-3.7,1.9-5.6c4.8-14,8.4-22,13.8-28.4c3.1-3.7,6.7-9.7,10.7-17.8c2.2-4.4,4.3-8.9,6.4-13.4
		c1-2.3,10.9-24.6,13-28.9c1.9-3.9,2.8-7.9,4.1-16.5c1.3-8.4,1.7-11,2.8-15.2c2.8-10.5,7.5-18.5,16-25.1c4.7-3.6,8.9-6.2,13.1-8.2
		c1.6-0.8,3.2-1.5,5-2.1c0.9-0.4,3.8-1.4,4.3-1.6c5.1-2,7.8-3.7,10.6-7.7c1.6-2.4,3-4.9,4.2-7.5c3-6.8,3.5-11,2.8-17.4
		c-0.3-2.5-0.3-3.3-0.3-4.4c0.2-4.6,3-8.7,11.3-15c9.7-7.4,12.2-14.1,8.9-20.3c-2.3-4.3-6.5-7.4-14-11.6c-1.7-0.9-3.9-1.4-6.8-1.7
		c-0.8-0.1-1.4-0.1-3-0.2c-5.1-0.3-6.7-0.7-6.8-2.4c-0.1-2.4,3.5-7.4,11.7-16c6.5-6.8,11.7-11.6,16.3-15.4c1.7-1.4,3.4-2.7,5.2-4
		l4.1-2.9c0.8-0.6,1.5-1.1,2.1-1.6c3.3-2.6,6.3-5.8,10.4-11.1l2.5-3.3l2.3-3.1c1.4-1.8,2.8-3.7,4.3-5.4c8.3-9.9,16.5-13.6,37.1-15
		c-0.9,0.1,11.5-0.9,13.8-0.9c3.5-0.1,5.8,0.1,8.1,0.9c0.8,0.3,1.5,0.6,2.4,1c1.8,0.9,2.7,3.5,3.7,10.1l0.4,2.8
		c0.2,1.1,0.3,2,0.5,2.9c1.5,8,3.8,12.8,8.3,15.3c6.9,3.8,10.9,5.3,14.5,5.1c4.5-0.3,7.8-3.5,10.2-10.3c1.6-4.3,1.6-7.1,0.2-8.9
		c-1.1-1.4-2.6-1.9-6.2-2.6c-1.8-0.3-1.9-0.4-2.6-0.5c-2.4-0.6-4.1-1.3-5.5-2.5c-1.6-1.3-3.2-2.7-4.8-4c-1.8-1.5-3-2.6-4-3.6
		c-2.4-2.3-3.4-3.9-3-4.9c0.8-2,7.6-2.9,18-2.7c5.6,0.1,11.1,0.4,16.7,0.9c1.2,0.1,2.4,0.3,3.5,0.6c1.4,0.3,3,0.6,4.7,0.9
		c5,0.9,10,1.4,14.7,1.3c5.7,0,10.5-0.9,14.2-2.7c8-4,15.7-6.8,21.8-7.4C598.7,208.9,599.4,208.9,600,208.9L600,208.9z M600,107.9
		c-9,16.3-17.9,30.3-24.3,36.7c-3,3-7.2,4.6-13,5.3c-4.4,0.5-8.2,0.4-17.2-0.1c-11.8-0.7-17.3-0.6-22.6,0.7c-5,1.2-9.1,1.7-14.8,2.1
		l-2.2,0.1c-12.6,0.8-19.5,1.8-32.9,5.8c-4.5,1.3-9.2,2.5-14.2,3.4c-10.7,2-21.6,3.4-32.5,4c-7.5,0.5-13.2,0.6-20.2,0.6
		c-5.6,0-12.3,1.7-18.5,5.3c-8.5,5-15.4,13.2-20,25c-1.2,3.3-2.7,6.6-4.5,9.7c-3.5,6-6.7,8.7-13,11.8l-4,2
		c-5.6,2.7-10.8,6.2-15.4,10.4c-8.3,7.4-13.9,16.8-22.8,35.9l-2.1,4.5c-7.3,15.6-11.4,23.2-17.2,29.6c-7.5,8.5-19.9,14.2-39.8,19.8
		c-4.4,1.2-19,5.1-19.2,5.1c-6.9,1.9-11.8,3.4-15.8,5c-10.7,4.3-18.9,10.6-36.7,26.7l-1.7,1.5c-8.6,7.7-13.4,11.9-18.7,15.8
		c-3.9,2.9-8,5.6-12.9,8.9c-2.1,1.3-10.3,6.6-12.3,7.9c-11.6,7.6-18.7,13.1-24.8,20.3c-2.5,2.9-4.7,5.9-6.5,9
		c-4.2,7-6.4,13.4-9.3,25.4l-1.5,6.3c-0.6,2.4-1.2,4.5-1.7,6.6c-2.9,10.5-6.8,17.1-14.6,26.5l-4.1,5c-1.6,2-3,3.6-4.2,5.3
		c-1.5,2-2.7,4.2-3.6,6.5c-1.2,3.4-1.6,6.1-1.9,12.2c-0.6,9.9-1.4,14.8-4.6,22.3c-1.6,3.7-5.7,14-6.4,15.8c-1,2.5-2.2,4.9-3.5,7.3
		c-2.8,5.1-6.6,10-13,16.8c-6.1,6.5-9,11.1-10.8,16.4c-0.5,1.4-0.9,2.8-1.4,4.9l-0.5,2.1h1l0.5-1.8c0.4-1.6,0.8-3.2,1.4-4.8
		c1.7-5.1,4.7-9.6,10.6-16c6.4-6.8,10.2-11.8,13.1-17c1.3-2.4,2.5-4.9,3.6-7.4c0.8-1.8,4.8-12.1,6.4-15.8c3.2-7.6,4-12.6,4.6-22.7
		c0.3-6,0.7-8.7,1.9-11.9c0.8-2.3,2-4.4,3.4-6.3c1.4-1.8,2.8-3.6,4.2-5.3l4.1-5c7.9-9.5,11.8-16.2,14.8-26.9c0.6-2,1.1-4.1,1.7-6.6
		l1.5-6.3c2.9-12,5.1-18.2,9.2-25.1c1.9-3.1,4-6.1,6.4-8.9c6.1-7,13.1-12.6,24.6-20.1c2-1.3,10.3-6.6,12.3-7.9c5-3.2,9-6,13-8.9
		c5.4-4,10.2-8.1,18.8-15.9l1.7-1.5c17.7-16,25.8-22.3,36.4-26.5c3.9-1.6,8.7-3.1,15.6-4.9c0.2-0.1,14.9-3.9,19.2-5.1
		c20.1-5.7,32.6-11.4,40.3-20.1c5.9-6.6,10.1-14.2,17.4-29.9l2.1-4.5c8.8-19,14.3-28.3,22.5-35.6c4.5-4.1,9.6-7.6,15.2-10.3l4-2
		c6.5-3.2,9.8-6,13.4-12.2c1.8-3.1,3.3-6.4,4.6-9.8c4.5-11.6,11.2-19.6,19.5-24.5c6.1-3.6,12.6-5.2,18-5.2c7,0,12.7-0.1,20.2-0.6
		c10.9-0.6,21.8-1.9,32.6-4c5-1,9.8-2.1,14.3-3.5c13.4-4,20.2-5,32.7-5.7l2.3-0.1c5.1-0.3,10.1-1,15-2.1c5.2-1.2,10.6-1.3,20.5-0.8
		c10.9,0.6,14.7,0.7,19.2,0.2c5.9-0.7,10.3-2.4,13.5-5.6c6.4-6.4,15-19.9,23.7-35.9L600,107.9L600,107.9z M600,558.1v-4.3
		c-0.8-4-1.5-9-2.3-16l-0.2-2l-0.2-2c-1.9-16.1-3.1-22.3-5.8-25.1c-2.2-2.2-2.7-4.5-2.2-7.8c0.1-0.6,0.2-1.1,0.4-2.1
		c0.7-3.7,0.8-5.4,0-7.4c-1-2.7-3.6-4.9-8.3-6.8c-4.6-1.9-5.7-4.1-4.4-7.1c0.6-1.3,1.7-2.8,3.4-4.8c1-1.2,5.5-5.9,5.1-5.5
		c6.3-6.9,9.2-11.7,9.2-17.2c-0.1-4.5,1.9-8.9,5.5-11.6v-1.3c-4.2,2.9-6.6,7.8-6.5,12.9c0,5.1-2.8,9.8-9,16.5c0.4-0.4-4,4.3-5.1,5.5
		c-1.7,2-2.9,3.6-3.5,5c-1.6,3.6-0.2,6.4,4.9,8.4c4.5,1.9,6.9,3.9,7.8,6.3c0.7,1.8,0.6,3.3-0.1,6.8c-0.2,1-0.3,1.5-0.4,2.1
		c-0.5,3.6,0.1,6.2,2.5,8.6c2.5,2.5,3.7,8.8,5.5,24.5l0.2,2l0.2,2C597.8,547.6,598.7,553.5,600,558.1L600,558.1z M600,493.5
		c-1.5-3.4-3.6-8.1-4-9.1c-1-2.4-1.2-3.5-0.9-4.6c0.2-0.7,2-4.4,2.3-5.2c1-2.5,1.9-5,2.6-7.6v-4c-0.9,3.8-2.1,7.6-3.5,11.2
		c-0.3,0.6-2.1,4.5-2.3,5.3c-0.3,1.4-0.1,2.6,0.9,5.2c0.5,1.3,3.5,8,5,11.2V493.5z M600,410.9v-1.5c-1.7,2-3.8,3.3-6.8,4.7
		c-0.2,0.1-13.9,5.5-20.4,8.4c-9.2,4.3-16.4,5.8-22.5,5.1c-4.9-0.5-8.7-2.2-14.3-5.8l-3.2-2.1c-2.2-1.4-3.8-2.4-5.5-3.3
		c-3.3-1.8-2.6-4.6,1.7-8.9c3.7-3.6,9.5-7.8,18.6-13.7c1.5-0.9,3-1.9,4.5-2.8c18-11.4,18.3-11.5,22.4-14.8
		c11.1-8.9,19.3-13.8,25.7-14.9v-1c-6.6,1.1-15.1,6.1-26.3,15.1c-4.1,3.2-4.3,3.4-22.3,14.7l-4.5,2.8c-9.1,5.9-15,10.1-18.7,13.8
		c-4.7,4.7-5.5,8.3-1.5,10.5c1.9,1,3.7,2.1,5.4,3.3l3.2,2.1c5.8,3.7,9.7,5.4,14.8,5.9c6.3,0.6,13.7-0.9,23-5.3
		c6.4-3,20.2-8.3,20.4-8.4C596.3,413.8,598.3,412.6,600,410.9L600,410.9z M600,369.5c-6.8,0.3-12.6,3.2-20.3,9.3
		c-0.7,0.6-3.8,3.1-4.6,3.7c-1.7,1.3-3,2.3-4.3,3.1c-0.8,0.5-5.5,3.3-6.2,3.8c-3.3,2-6.2,3.8-8.9,5.6c-3.1,2.1-5.9,4.1-8.2,6
		c-4.8,3.9-7.7,7.2-8.3,9.9c-0.8,3.4,1.8,5.7,7.8,6.7c10.9,1.8,21.3-0.1,31-4.7c6.5-3.1,12.3-7.3,17.4-12.4c1.7-1.9,3.3-4,4.6-6.2
		v-1.9c-1.5,2.7-3.3,5.2-5.4,7.4c-5,5-10.7,9.1-17.1,12.2c-9.5,4.6-19.8,6.4-30.5,4.6c-5.6-0.9-7.7-2.8-7-5.5c0.6-2.5,3.4-5.6,8-9.4
		c2.6-2.1,5.4-4.1,8.2-5.9c2.7-1.8,5.6-3.6,8.9-5.6c0.7-0.4,5.4-3.2,6.2-3.8c1.5-1,3-2,4.4-3.1l4.6-3.7c7.6-5.9,13.2-8.8,19.7-9.1
		V369.5L600,369.5z M600,214.9c-2-0.2-4.6,0.3-8.2,1.6c-10,3.7-13.8,5.1-19.1,6.7c-1.8,0.6-2.6,0.8-3.9,1.3c-1.4,0.5-3,0.7-6.5,1.1
		c-0.9,0.1-1.8,0.2-2.7,0.3c-8.3,1-12.2,2.7-12.2,7.1c0,4.6,2.9,13.4,8,26.2c0.8,2,1.5,4.3,2.3,7.5c0.3,1.2,0.6,2.3,0.8,3.5
		c2,8,3.3,11.2,6.2,12.4c2.5,1,5.3,0.7,8.3-0.7c3.6-1.8,7.5-5.1,11.5-9.7c1.5-1.7,3-3.5,4.6-5.6c0.5-0.6,2.7-3.5,3.2-4.1
		c2.3-2.9,5.3-10.2,7.6-17.4v-3.4c-2.3,8-5.8,17-8.4,20.2l-3.2,4.1c-1.6,2.1-3.1,3.9-4.6,5.6c-4,4.5-7.7,7.8-11.2,9.5
		c-2.8,1.3-5.3,1.6-7.5,0.7c-2.4-1-3.7-4.1-5.6-11.7c-0.3-1.2-0.6-2.3-0.8-3.5c-0.6-2.6-1.4-5.1-2.3-7.6c-5.1-12.6-8-21.4-8-25.8
		c0-3.6,3.5-5.1,11.3-6.1c0.9-0.1,1.8-0.2,2.6-0.3c3.6-0.4,5.3-0.7,6.7-1.2c1.2-0.4,2.1-0.7,3.9-1.2c5.4-1.7,9.1-3,19.2-6.8
		c3.5-1.3,6.1-1.8,7.8-1.6L600,214.9L600,214.9z M0,292v3c11-12,19.6-24.6,24.9-37.6c3.3-8.2,6.1-16.2,10.9-30.7l1.6-4.8
		c6.5-19.9,10.1-29.7,14.7-39.3c5.9-12.4,12.2-20.5,19.5-24.7c7-4,10.9-8.4,13.1-14.2c0.7-1.9,1.1-3.3,1.9-6.8
		c1.2-5,1.9-7.2,3.6-9.7c2.2-3.3,5.7-5.9,11.2-8.2c16.7-6.9,17.3-7.2,19-9.7c1-1.4,1.2-3,1.1-5.7c0-0.8-0.2-3.9-0.2-4
		c-0.1-1.9-0.2-3.6-0.2-5.4c0-9.2,0.2-10.4,1.6-11.6c0.4-0.3,0.9-0.6,1.8-1.1c0.3-0.1,2.2-1.1,2.8-1.5c3.3-1.8,6.4-3.8,9.4-6
		c2.2-1.7,2.8-2.2,8.3-8.2c7.7-8.3,12.2-11.2,17.9-9.7c4.6,1.3,11.1,2.1,19.2,2.5c7,0.4,13,0.5,22.1,0.5c4.7,0,8.7,0.5,15,1.5
		c7.9,1.3,9.5,1.6,12.7,1.6c4.2,0.1,8.3-1,11.8-3.3c4.9-3.1,7.7-4.4,10.5-4.9c3.2-0.6,4.4-0.4,15.8,2.1c17.9,3.8,32.2,1.4,43-10.3
		c5.7-6.1,6.1-10.3,3.9-16.8c-0.8-2.3-1-2.9-1.1-3.9c-0.2-1.9,0.4-3.5,2.1-5.3c3.1-3.1,5.3-10,6.8-19.7h-2
		c-1.5,9.1-3.6,15.6-6.2,18.3c-2.2,2.2-3,4.4-2.7,6.9c0.1,1.2,0.3,1.9,1.2,4.3c2,5.9,1.6,9.3-3.5,14.8
		c-10.2,11.1-23.8,13.4-41.1,9.7c-11.8-2.5-12.9-2.7-16.6-2.1c-3.1,0.5-6.1,2-11.2,5.2c-3.3,2.1-6.6,3-10.7,3
		c-3.1,0-4.6-0.2-12.4-1.5C213,57.5,208.9,57,204,57c-9.1,0-15.1-0.1-21.9-0.5c-8-0.5-14.4-1.3-18.8-2.5c-3.7-1-7.3-0.2-10.9,2.1
		c-2.8,1.8-5.2,4-9,8.1c-5.4,5.8-5.9,6.4-8,7.9c-2.9,2.2-5.9,4.2-9.1,5.9c-0.7,0.4-2.6,1.3-2.8,1.5c-0.9,0.5-1.6,0.9-2.1,1.3
		C119.2,82.6,119,84,119,94c0,1.9,0.1,3.7,0.2,5.5c0,0.2,0.2,3.3,0.2,4c0.1,2.4-0.1,3.5-0.7,4.5c-1.3,2-2.3,2.4-18,9
		c-5.8,2.4-9.7,5.3-12.1,9c-1.9,2.8-2.7,5.2-3.9,10.4c-0.5,2.2-1.1,4.4-1.9,6.6c-2,5.3-5.6,9.4-12.2,13.1
		c-7.7,4.4-14.2,12.8-20.3,25.5c-4.7,9.7-8.2,19.6-14.8,39.6l-1.6,4.8c-4.7,14.4-7.5,22.4-10.8,30.6C18.1,268.8,10.1,280.7,0,292
		L0,292z M0,370v-46.1v1.2c6-3.6,12.1-7.2,14.3-8.7c13.9-9.6,30.2-38.1,30.2-54.4c0-17.8,21.4-72,31.8-78.6
		c12.9-8.2,32.5-28.2,36.2-38.3c1.8-4.9,5.1-6.7,12.9-8.5c7.2-1.7,9.8-2.7,12-5.3c1.6-1.9,2.9-5,4.5-10.7c0.2-0.8,1.9-6.7,2.4-8.5
		c3.5-11.8,7.1-18,12.8-19.7c2.5-0.8,3.1-1,9.8-3.7c7.4-3,11.8-4.4,16.8-4.9c6.5-0.6,12.7,0.7,18.9,4.5c5.6,3.4,12.6,4.9,20.7,4.7
		c6.1-0.1,12.4-1.1,20-2.8c1.8-0.4,7.4-1.7,8.3-1.9c2.6-0.6,4.2-0.9,5.3-0.9c5,0,9-0.1,14.3-0.3c7.9-0.3,15.6-0.9,22.8-1.9
		c8.6-1.2,16-2.8,22.1-4.9c19.2-6.7,33.2-18.7,34.3-28.4c0.3-2.5,0.4-2.9,2.7-11c2.4-8.1,3.3-13.1,2.8-18.6
		c-0.2-2.3-0.7-4.5-1.5-6.7c-1.6-4.1-2.7-9.4-3.5-15.8h-0.9c0.8,6.8,1.9,12.3,3.4,16.2c0.8,2,1.3,4.2,1.5,6.4
		c0.5,5.3-0.4,10.3-2.7,18.2c-2.4,8.2-2.5,8.5-2.8,11.1c-1,9.3-14.8,21-33.7,27.6c-6,2.1-13.4,3.7-21.9,4.8
		c-7.2,1-14.9,1.6-22.8,1.9c-5.3,0.2-9.2,0.3-14.2,0.3c-1.1,0-2.8,0.3-5.5,0.9c-0.9,0.2-6.4,1.5-8.3,1.9c-7.6,1.7-13.8,2.7-19.8,2.8
		c-8,0.2-14.7-1.2-20.2-4.6c-6.4-3.9-12.8-5.3-19.6-4.7c-5.1,0.5-9.6,1.9-17.1,4.9c-6.7,2.7-7.2,2.9-9.7,3.7
		c-6.2,1.9-9.9,8.3-13.5,20.4c-0.5,1.8-2.2,7.7-2.4,8.5c-1.6,5.5-2.8,8.6-4.3,10.3c-2,2.4-4.5,3.3-10.7,4.8
		c-8.9,2.1-12.5,4.1-14.4,9.4c-3.6,9.8-23.1,29.7-35.8,37.8c-10.7,6.8-32.2,61.3-32.2,79.4c0,16-16.1,44.1-29.8,53.6
		c-4.5,2.9-9.1,5.7-13.7,8.3v46.6c0.3,0,0.7,0,1,0c5.4,0,6.3,4.4,3.7,12c-1.2,3.4-2.8,6.6-4.7,9.7v1.9c2.3-3.6,4.1-7.3,5.6-11.3
		c2.9-8.2,1.7-13.4-4.6-13.4l-1,0L0,370L0,370z M0,196.3c7.7-3.9,15.1-10.4,22.6-19.5c3.8-4.6,14.2-18.8,15.8-20.5
		c1.8-2,4-3.9,7.3-6.3l5.5-4c9.5-7,14.3-12.2,16.3-19.9c0.8-3,1.6-6.8,2.5-12.4c0.2-1.4,2-12.4,2.6-15.8c2.8-16.6,5.7-26.5,9.9-31.6
		c11-13.5,20.1-27.8,20.1-33.3c0-2.3,0.4-3.3,5.9-15.3c0.7-1.5,1.3-2.8,1.8-3.9c2.6-5.9,4-10.3,4.2-13.8h-1
		c-0.2,3.3-1.6,7.6-4.1,13.4c-0.5,1.2-1.1,2.4-1.8,3.9c-5.7,12.4-6.1,13.2-6.1,15.7c0,5.1-9,19.4-19.9,32.7
		C77.3,71,74.4,81,71.5,97.8c-0.6,3.3-2.3,14.3-2.6,15.8c-0.9,5.5-1.7,9.3-2.5,12.3c-2,7.4-6.6,12.5-16,19.4c-0.6,0.4-4.4,3.2-5.5,4
		c-3.4,2.5-5.6,4.4-7.4,6.4c-1.6,1.8-12,16-15.8,20.6c-7.3,8.8-14.4,15.2-21.8,19L0,196.3L0,196.3z M0,558.1
		c0.2,0.7,0.4,1.5,0.6,2.1c2.2,6.5,5.3,9.2,9.6,7.2c19.3-9,34.3-24.6,34.3-40.5c0-16,6.3-31.5,16.9-45.7c1.6-2.1,3.4-4.1,5.4-5.8
		c0.7-0.6,1.4-1.1,2.3-1.8l2-1.4c3.9-2.8,5.7-5.6,7.5-13.2c0.7-3,1.4-5,4.2-13.2l0.6-1.9c3.3-9.7,4.6-15.2,4.2-19.1
		c-0.6-5.3-4.7-6.3-12.7-2.4c-2.9,1.4-6,2.6-9,3.6c-13.8,4.6-26.7,5.8-42.3,5.4l-2,0c-5.8-0.2-11.6,0.8-16.9,3
		c-1.6,0.7-3.1,1.5-4.6,2.6v1.3c1.5-1.2,3.2-2.2,4.9-2.9c4.8-2,9.9-3,15.1-3l1.5,0l2,0c15.7,0.4,28.8-0.8,42.7-5.4
		c3.1-1,6.2-2.3,9.2-3.7c7.5-3.6,10.8-2.8,11.3,1.6c0.4,3.7-0.9,9.1-4.2,18.6l-0.6,1.9c-2.8,8.2-3.4,10.2-4.2,13.3
		c-1.8,7.3-3.4,9.9-7.1,12.6l-2,1.4c-0.9,0.6-1.6,1.2-2.3,1.8c-1.9,1.6-3.6,3.5-5.5,6C49.9,495,43.5,510.8,43.5,527
		c0,15.4-14.7,30.7-33.7,39.5c-3.6,1.7-6.2-0.6-8.2-6.6c-0.6-1.8-1.1-3.8-1.6-6.2L0,558.1L0,558.1z M0,496l0.5,1.2
		c2.1,4.7,3.4,10.1,4.2,16.5c0.7,5.3,0.8,9.2,1,18.4c0.2,9.5,0.5,13,1.7,15.5c1.6,3.4,4.8,3,9.8-1.2C34.7,531.9,39.5,523,39.5,507
		c0-7,1.1-12.1,3.6-17.2c2.2-4.6,3.6-6.5,13.3-19.5c2.2-3.1,4.8-6,7.5-8.7c0.8-0.8,1.6-1.4,2.5-2.2l1-0.8l0.9-0.8
		c1.3-1.1,2.1-2.1,2.9-3.6c1-2,1.7-4,2.3-6.1l0.4-1.2l0.4-1.1l0.7-2.2c0.4-1.2,0.7-2.5,0.9-3.8c0.4-2.5,0.1-4.2-1.3-5.1
		c-2.8-1.9-9.8-0.5-24.7,4.8c-9.4,3.4-15.9,4.1-27.5,4.2c-7.9,0.1-10.7,0.4-13.8,2.3c-3.8,2.3-6.2,6.8-8,14.9L0,463.1v4
		c0.5-1.8,1-3.8,1.5-6c1.7-7.9,4.1-12.1,7.6-14.3c2.8-1.7,5.5-2.1,13.3-2.1c11.7-0.1,18.3-0.9,27.9-4.3c14.5-5.2,21.5-6.5,23.8-4.9
		c1,0.7,1.2,1.9,0.8,4.1c-0.2,1-0.5,2.1-0.9,3.7c-0.2,0.6-0.4,1.3-0.7,2.2l-0.4,1.1l-0.4,1.2c-0.6,2-1.3,4-2.3,5.9
		c-0.6,1.3-1.5,2.4-2.6,3.3c-0.3,0.2-0.5,0.4-0.9,0.7c-1.2,1-2.4,2-3.5,3.1c-2.8,2.7-5.3,5.7-7.6,8.8c-9.7,13-11.1,14.9-13.4,19.6
		c-2.6,5.3-3.7,10.5-3.7,17.7c0,15.7-4.7,24.3-21.8,38.6c-4.6,3.8-7,4.1-8.3,1.5c-1.1-2.3-1.4-5.7-1.6-15c-0.2-9.2-0.4-13.2-1-18.5
		c-0.8-6.4-2.2-12-4.3-16.8L0,493.5V496L0,496z M380.8,5.5c3.3,11.5,4.9,19.2,5.2,27.6c0.5,10.8-1.5,20.9-6.5,30.7
		c-7.7,14.9-20.2,26.2-35.8,33.7c-12.2,5.9-25.8,9.1-35.8,9.1c-6.9,0-17.3,1.4-37.4,4.6l-2.3,0.4c-24.4,4-31.6,5-37.3,5
		c-3.4,0-4-0.1-19.4-2.8c-3.6-0.6-6.3-1.1-9-1.5c-9.4-1.4-16.4-1.7-21.9-0.9c-6.8,1.1-10.7,4.2-11.2,9.6l-0.3,2.8l-0.3,2.7
		c-1.1,10.8-2,15.5-4.2,19.6c-2.7,5-7.3,7.4-14.8,7.4c-10.4,0-13.4,0.6-16.2,3.5c0.5-0.5-5.1,5.9-8.1,8.7
		c-2.7,2.5-14.3,12.5-15.8,13.8c-2.4,2.2-4.6,4.1-6.6,5.9c-7,6.5-11.9,11.9-14.8,16.3c-6,9.4-10.6,18.2-11.8,24.4
		c-1.9,9.4,4.5,10.9,20.5,2.3c14.5-7.9,29.4-15.2,44.5-21.9c3.5-1.6,14-6.2,15.7-6.9c3.7-1.6,7.3-3.3,10.9-5.2l1.9-1.1
		c2.3-1.3,4.7-2.5,7.1-3.7c17.8-8.6,33.9-10.3,49.4-1.2c22.5,13.2,37.7,36.5,37.7,55.6c0,19-0.7,24.8-5.1,32.7c-1.4,2.5-3,4.8-4.8,7
		c-6.6,7.9-12,16.4-13,21.7c-1.4,7.6,5.5,8.4,21.6,1c13.5-6.2,22.8-15.2,29-26.8c2.6-4.9,4.6-10,6.2-15.3c0.9-3,3.2-11.7,3.4-12.5
		c0.4-1.6,1-3.2,1.7-4.7c7.4-14.7,20.9-30.1,35.8-36.8c7.9-3.5,13.4-9.9,19.9-21.2c0.9-1.5,4.3-7.6,5.1-9.2c3.5-6,6.1-9.5,9.1-11.7
		c9.9-7.2,28.3-10.9,49.7-10.9c7.6,0,16.7-1.3,27.7-3.6c5-1.1,10-2.3,15-3.5c-1.3,0.3,15.5-4,19.4-4.9c14.1-3.3,40.9-5,63.9-5
		c17.8,0,28.6-9.5,39.5-39.3c6.7-18.5,6.7-26.9,2.7-35.1c0,0-0.9-1.8-1.2-2.4c-1-2.1-1.5-3.7-1.5-5.7c0-4,0-4,2.5-24.4
		c0.5-3.7,0.8-6.8,1.1-9.7c0.9-8.5,1.4-15.3,1.4-20.9c0-0.9,0-1.9,0-3h-1c0,1.1,0,2.1,0,3c0,5.6-0.5,12.3-1.4,20.8
		c-0.3,2.9-0.7,5.9-1.1,9.6C587.5,54,587.5,54,587.5,58c0,2.1,0.5,4.2,1.5,6.1l1.2,2.4c3.9,8,3.9,16.1-2.7,34.3
		c-10.7,29.4-21.2,38.7-38.5,38.7c-23,0-50,1.7-64.1,5c-3.9,0.9-20.7,5.2-19.4,4.9c-5,1.3-10,2.4-15,3.5c-11,2.3-20,3.6-27.5,3.6
		c-21.6,0-40.1,3.7-50.3,11.1c-3.1,2.3-5.9,5.9-9.4,12c-0.9,1.5-4.3,7.7-5.1,9.2c-6.4,11.1-11.8,17.4-19.4,20.8
		c-15.2,6.7-28.8,22.3-36.3,37.2c-0.7,1.6-1.3,3.2-1.8,4.8c-0.2,0.8-2.5,9.5-3.4,12.5c-1.5,5.2-3.6,10.3-6.1,15.1
		c-6.1,11.4-15.2,20.2-28.5,26.3c-15.5,7.1-21.4,6.4-20.2,0c0.9-5.1,6.3-13.5,12.8-21.3c1.9-2.2,3.5-4.6,4.9-7.1
		c4.4-8.1,5.2-14.1,5.2-33.2c0-19.4-15.4-43.1-38.3-56.4c-15.9-9.3-32.2-7.5-50.3,1.2c-1.6,0.8-3.2,1.6-5,2.6l-2.2,1.2l-1.9,1.1
		c-2.5,1.3-5.7,2.9-10.8,5.1c-1.6,0.8-12.2,5.4-15.7,6.9c-15.1,6.7-30,14-44.5,21.9c-15.4,8.3-20.7,7.1-19-1.2
		c1.2-6,5.8-14.8,11.7-24.1c2.8-4.4,7.6-9.7,14.6-16.1c2.2-2,4.3-4,6.5-5.9c1.5-1.3,13-11.3,15.8-13.8c3.1-2.8,8.7-9.2,8.2-8.7
		c2.6-2.6,5.3-3.2,15.5-3.2c7.9,0,12.7-2.6,15.6-7.9c2.3-4.2,3.2-9.1,4.3-20l0.3-2.7c0.1-1.1,0.2-2,0.3-2.8c1-9.1,11.7-10.8,32-7.9
		c2.7,0.4,5.4,0.9,9,1.5c15.5,2.7,16.1,2.8,19.5,2.8c5.8,0,13-1,37.5-5l2.3-0.4c20-3.2,30.4-4.6,37.3-4.6c10.1,0,23.8-3.2,36.2-9.2
		c15.8-7.6,28.4-19,36.2-34.1c5.1-9.9,7.1-20.2,6.6-31.2c-0.4-8.5-2-16.2-5.3-27.8L380.3,0h-1L380.8,5.5z M393,0
		c1.1,5.1,2.2,10.1,3.6,15.1c3.6,13.9,3,26.7-0.8,38.2c-2.4,7.4-6.1,14.3-11.1,20.3c-5.8,6.8-12.2,13.1-19.2,18.6
		c-11.2,8.9-23.1,15.3-35.5,18.2c-7.1,1.6-14.3,2.9-22.5,4.1c-3.2,0.4-6.3,0.8-10.3,1.3l-9.4,1.1c-11.6,1.4-17.6,2.6-21.9,4.5
		c-9.1,4.1-28.1,6-48.8,6c-1.3,0-2.7-0.1-4.1-0.3c-3.1-0.5-6.1-1.3-9-2.3c-7.5-2.3-9.8-2.8-13-2.6c-4.3,0.3-7.3,2.6-9.3,7.5
		c-1.9,4.8-2.5,7.7-3.4,15.2c-1.1,8.6-2.6,11.4-9.3,13.5c-2.4,0.7-4.7,1.6-7,2.7c-0.7,0.4-1.2,0.7-1.8,1.1l-1.3,0.8
		c-1.7,1-3.5,1.4-8.7,1.4c-3.1,0-8.9-0.6-9.7-0.4c-1.5,0.3-0.9-0.2-7.6,6.5c-2,1.9-4,3.6-6.2,5.3c-1.5,1.2-7.2,5.4-7.9,6
		c-5,3.8-8.4,6.7-11.2,9.5c-5.1,5.2-7.3,9.7-5.8,13.7c1.5,4.3,4.9,5.2,10.2,3.4c2.7-1,5.4-2.2,7.9-3.5c1.5-0.8,7.8-4.1,9.4-5
		c4-2.1,8-4,12.2-5.6c2.9-1.1,6.4-2.7,11.1-4.9l13-6.2c4.4-2.1,8.1-3.8,11.6-5.3c16.9-7.2,28.9-9.8,36.9-6.6l5.4,2.1
		c2.3,0.9,4.2,1.6,6,2.4c4.8,2,9,3.9,13,6c18.1,9.5,29.9,21.8,34.3,39.2c6.9,27.6,3.6,45-7.9,61.6c-4.4,6.3-3.8,10.8,0.9,10.5
		c4.5-0.3,10.8-5.2,15.9-13c3.2-4.9,5.2-10.6,8.2-21.8l1.7-6.4c0.7-2.5,1.2-4.5,1.8-6.5c4.9-16.4,10.9-26.9,21.2-34.2
		c7.1-5.1,23.7-15.5,25.5-16.8c6.9-4.9,10.8-9.7,14.7-18.5c7.5-16.9,20.5-23.7,43.5-23.7c9.4,0,18.1-1.1,29.7-3.5
		c2.1-0.4,4.1-0.9,6.2-1.3c2.4-0.5,4.1-0.8,5.6-1.1c4-0.7,6.9-1.1,9.4-1.1c4.6,0,9.4-1,31.6-6l3-0.7c16.3-3.7,25.5-5.3,31.4-5.3
		c1.5,0,2.4,0,6.4,0.1c7.8,0.2,12.3,0.1,17.4-0.2c16.8-1.1,27.5-5.5,30.7-15.2c1-3,2.2-5.9,3.5-8.7c-0.2,0.3,2.3-5,2.9-6.4
		c5.5-12.6,5.7-22.4-1.4-40.2c-2.6-6.6-4.3-13.5-5.2-20.5c-1.6-11.9-1.4-23,0.1-40.1l0.2-2.2h-1l-0.2,2.1
		c-1.5,17.2-1.7,28.4-0.1,40.3c0.9,7.1,2.7,14.1,5.3,20.7c7,17.5,6.8,27.1,1.4,39.4c-0.6,1.4-3.1,6.7-2.9,6.4
		c-1.3,2.9-2.5,5.8-3.5,8.8c-3.1,9.2-13.4,13.5-29.8,14.6c-5.1,0.3-9.5,0.3-17.3,0.2c-4-0.1-4.9-0.1-6.4-0.1c-6,0-15.3,1.7-31.7,5.4
		l-3,0.7c-22,5-27,6-31.4,6c-2.6,0-5.6,0.4-9.6,1.1c-1.6,0.3-3.3,0.6-5.7,1.1c-2.1,0.4-4.1,0.9-6.2,1.3c-11.6,2.4-20.2,3.5-29.5,3.5
		c-23.4,0-36.7,6.9-44.5,24.3c-3.8,8.6-7.6,13.2-14.3,18c-1.8,1.3-18.3,11.7-25.5,16.8c-10.6,7.5-16.6,18.2-21.6,34.8
		c-0.6,2-1.2,4-1.8,6.5l-1.7,6.4c-2.9,11.1-4.9,16.7-8,21.5c-4.9,7.6-11,12.2-15.1,12.5c-3.6,0.2-4-3.2-0.1-9
		c11.7-16.9,15-34.6,8.1-62.4c-4.4-17.7-16.5-30.2-34.8-39.9c-4.3-2.2-8.6-4.2-13.1-6c-1.9-0.8-3.7-1.5-6-2.4l-5.4-2.1
		c-8.4-3.3-20.5-0.7-37.7,6.6c-3.5,1.5-7.2,3.2-11.6,5.3c-2.3,1.1-11,5.3-13,6.2c-3.6,1.7-7.3,3.4-11,4.8c-4.2,1.7-8.3,3.5-12.3,5.7
		c-1.6,0.8-7.9,4.2-9.4,5c-2.5,1.4-5.1,2.5-7.8,3.5c-4.8,1.6-7.6,0.8-8.9-2.8c-1.3-3.6,0.7-7.7,5.6-12.7c2.7-2.8,6.1-5.6,11.1-9.4
		c0.8-0.6,6.4-4.9,7.9-6c2.8-2.2,4.8-3.9,6.3-5.4c6.4-6.4,5.9-6,7.1-6.2c0.7-0.2,6.3,0.4,9.5,0.4c5.4,0,7.4-0.4,9.3-1.5l1.3-0.9
		c0.6-0.4,1.1-0.7,1.8-1c2.2-1.1,4.5-2,6.8-2.7c7.1-2.2,8.9-5.3,10-14.3c0.9-7.4,1.5-10.3,3.3-15c1.8-4.6,4.6-6.7,8.5-6.9
		c3-0.2,5.3,0.3,12.6,2.6c4.1,1.3,6.5,1.9,9.1,2.3c1.5,0.2,2.9,0.4,4.3,0.4c20.9,0,39.9-1.8,49.2-6c4.2-1.9,10.1-3,21.6-4.5l9.4-1.1
		c3.9-0.5,7.1-0.9,10.3-1.3c7.6-1,15.1-2.4,22.6-4.1c12.6-2.9,24.6-9.4,36-18.4c7-5.6,13.5-11.9,19.3-18.8
		c5.1-6.1,8.9-13.1,11.4-20.7c3.8-11.7,4.4-24.7,0.8-38.8c-1.6-6.2-2.7-11-3.5-14.9H393L393,0z M506.7,0L506,0.9
		c-3.9,4.9-6.8,7.8-9.5,9.3c-1.5,0.9-3,1.3-4.5,1.3c-2.6,0-4.6,0.7-7.2,2.4c-0.6,0.3-2.5,1.6-2.7,1.7c-4.2,2.7-7.7,3.9-13.1,3.9
		c-5.4,0-9.7-1.2-15.7-3.9l-1.1-0.5c-1.1-0.5-2.2-1-3.3-1.5c-1.7-0.7-3-1.2-4.3-1.5c-1.2-0.3-2.4-0.5-3.5-0.5
		c-2.1,0-4.1-0.7-10.6-3.3l-1.6-0.6c-5.2-2-8.3-2.9-11-2.7c-3.5,0.3-5.4,2.5-5.4,7.2c0,20.5-5.2,50-11.8,56.6
		c-7.5,7.5-26.5,23.6-33.9,28.9c-13.1,9.3-31.1,20.1-43.9,24.9c-4.4,1.7-8.7,2.9-13.2,4c-3.3,0.8-6.6,1.4-11.2,2.2
		c-0.5,0.1-8.8,1.5-11.5,2c-4.9,0.9-9.3,1.8-14,2.8c-20.6,4.5-24.9,5-37.9,5c-2.4,0-2.9-0.1-13.9-2c-2.4-0.4-4.3-0.7-6.2-1
		c-8.3-1.2-14.1-1.4-18.1-0.2c-5.1,1.6-6.8,5.4-4.3,11.8c2.1,5.5,5.1,9,9.3,11.3c3.4,1.8,7,2.7,14.1,3.8c9.4,1.5,10.9,1.7,15.4,2.9
		c6.4,1.6,12.6,4.1,18.4,7.3c8.1,4.5,14.3,11.3,19.6,20.5c2.7,4.7,9.4,19.3,10.5,21.2c3.7,6.4,7.3,7.4,12.5,2.2
		c4.9-4.9,10.2-8.3,20.9-13.9l2.1-1.1c8-4.2,12-6.5,16-9.6c5.2-4,8.9-8.3,11.1-13.5c8.4-19.9,20.4-32.7,31.5-32.7l5.5,0
		c10.6,0.1,17.4,0,25-0.3c13.8-0.6,24-2.1,29.8-4.8c5.8-2.7,13.3-5.4,24.1-9c3.5-1.1,6.3-2,12.7-4.1c7.7-2.5,11.1-3.5,15.2-4.9
		c3.8-1.2,7.5-2.5,11.3-3.7c3.7-1.2,6-2,8.1-2.8c2.3-0.9,4.6-1.9,6.8-3c2-1.1,4-2.3,6-3.6c3.3-2.2,5.9-3,11.7-4l1.2-0.2
		c5.9-1,9.3-2.4,13.2-5.9c8.2-7.3,9-23.8,4.2-45.5c-1.7-7.6-2.1-19.1-1.6-35.2c0.1-4.6,0.4-9.2,0.7-15.6l0.2-3.1h-1
		c-0.3,6.2-0.6,12.4-0.8,18.6c-0.5,16.2-0.1,27.8,1.6,35.5c4.7,21.3,4,37.6-3.8,44.5c-3.8,3.3-7,4.6-12.8,5.6l-1.2,0.2
		c-5.9,1-8.6,1.8-12,4.1c-2.1,1.4-4,2.5-5.9,3.5c-2.2,1.1-4.4,2.1-6.7,2.9c-2.1,0.8-4.4,1.6-8,2.8c-3.8,1.2-7.6,2.5-11.3,3.7
		c-4.1,1.4-7.5,2.5-15.2,4.9c-6.4,2-9.2,3-12.7,4.1c-10.8,3.5-18.3,6.3-24.2,9c-5.6,2.6-15.7,4.1-29.4,4.7
		c-7.5,0.3-14.4,0.4-24.9,0.3l-5.5,0c-11.7,0-23.9,13.1-32.5,33.3c-2.1,5-5.7,9.2-10.8,13.1c-3.9,3-7.9,5.3-15.9,9.5
		c-0.1,0-1.6,0.9-2.1,1.1c-10.8,5.7-16.2,9.1-21.1,14.1c-4.6,4.6-7.5,3.9-10.9-2c-1.1-1.9-7.8-16.5-10.5-21.2
		c-5.4-9.4-11.7-16.3-20-20.9c-5.9-3.2-12.1-5.7-18.6-7.4c-4.6-1.2-6.1-1.4-15.5-2.9c-7.1-1.1-10.6-2-13.8-3.7
		c-4-2.1-6.8-5.5-8.8-10.7c-2.2-5.9-0.8-9.1,3.7-10.5c3.8-1.2,9.5-1,17.6,0.2c1.8,0.3,3.7,0.6,6.1,1c11.2,1.9,11.6,2,14.1,2
		c13,0,17.5-0.5,38.1-5c4.7-1,9.1-1.9,14-2.8c2.7-0.5,11-1.9,11.5-2c4.6-0.8,8-1.5,11.3-2.2c4.5-1.1,9-2.4,13.3-4
		c12.9-4.9,30.9-15.7,44.1-25.1c7.5-5.4,26.5-21.5,34.1-29.1c6.9-6.9,12.1-36.6,12.1-57.3c0-4.1,1.5-5.9,4.4-6.1
		c2.4-0.2,5.5,0.7,10.5,2.7l1.6,0.6c6.7,2.7,8.7,3.4,11,3.4c1.1,0,2.2,0.2,3.3,0.4c1.3,0.3,2.6,0.8,4.2,1.5l2.2,1
		c0.8,0.4,1.5,0.7,2.3,1.1c6.1,2.8,10.5,4,16.1,4c5.6,0,9.3-1.3,13.6-4.1l2.6-1.7c2.5-1.5,4.3-2.2,6.7-2.2c1.8,0,3.5-0.5,5-1.4
		c2.9-1.6,5.9-4.6,9.8-9.6c0.3-0.3,0.7-0.8,1.2-1.5L506.7,0L506.7,0z M324.5,600c0.5-2.9,0.9-6.1,1.3-9.4c0.6-5.4,1-10.7,1.2-16.1
		c-0.3-2.8-0.4-3.4-0.6-4.1c-0.4-1.9-0.9-4.1-1.3-6.4c-2-11.1-2.6-22.5-1.1-33.2c0.8-6,2.4-11.9,5-17.4c3.1-6.5,7.3-12.5,12.3-17.7
		c3.3-3.5,5.4-5.4,11.7-10.6c4.7-3.9,6.6-5.8,7.9-8c0.8-1.4,1.2-2.7,1.2-4.1c0-1.9,0-1.8-0.8-9.4c-0.4-3.6-0.6-6.2-0.7-8.8
		c-0.5-11.3,1.4-18,6.8-19.8c16.3-5.4,26.7-12.5,34.5-26.5C411,392.2,426.8,378,436,378c12.7,0,20.8-2.1,30.6-9.2
		c6.6-4.8,9.2-6.4,11.9-7.1c2-0.6,3.5-0.7,8.6-0.7c2.4,0,4.5-1,6.9-3.1c1.2-1,5.2-5.2,5.7-5.7c5.7-5.5,11.2-8.2,19.4-8.2
		c2.4,0,4.5,0,7.3,0.1c7.8,0.2,9.3,0.2,12-0.8c3.4-1.2,5.9-3.2,15.4-11.5c7.9-7,10.5-8.8,22.6-16.3c1.5-0.9,2.6-1.6,3.8-2.4
		c3.5-2.4,6.5-4.7,9.7-7.7c3.5-3.3,7-6.8,10.3-10.4v-3c-3.6,4-7.5,8-11.6,11.9c-2.9,2.8-6.1,5.3-9.5,7.5c-1.1,0.7-2.3,1.5-3.7,2.4
		c-12.2,7.5-14.9,9.4-22.9,16.5c-9.2,8.1-11.7,10.1-14.8,11.2c-2.4,0.9-3.8,0.9-11.3,0.7c-2.8-0.1-4.9-0.1-7.3-0.1
		c-8.8,0-14.8,2.9-20.8,8.8c-0.5,0.5-4.5,4.6-5.6,5.6c-2,1.8-3.7,2.6-5.6,2.6c-5.3,0-6.9,0.1-9.1,0.7c-3,0.9-5.7,2.5-12.5,7.5
		C456,374,448.4,376,436,376c-10.1,0-26.4,14.6-35.9,31.5c-7.6,13.4-17.6,20.2-33.5,25.5c-6.5,2.2-8.6,9.7-8.1,21.8
		c0.1,2.7,0.3,5.3,0.7,9c0.8,7.5,0.8,7.5,0.8,9.2c0,1-0.3,2-1,3.1c-1.2,1.9-3,3.7-7.5,7.5c-6.3,5.3-8.4,7.2-11.8,10.8
		c-5.1,5.4-9.4,11.5-12.6,18.2c-2.6,5.7-4.4,11.7-5.2,18c-1.5,10.9-0.9,22.5,1.1,33.8c0.4,2.4,0.9,4.6,1.4,6.5
		c0.5,4.6,0.4,5.9,0.4,7.3c-0.2,4-0.5,8.1-1,12.2c-0.4,3.5-0.8,6.7-1.3,9.7H324.5L324.5,600z M311.1,600c3.3-8.1,4.4-12.7,4.4-19
		c0-3.6-0.1-5-0.8-15.7c-0.8-12-1-19.6-0.5-28.2c0.6-11.4,2.4-21.9,5.8-31.9c1.3-3.8,2.8-7.4,4.5-11c3.4-7.1,6.8-12.2,10.3-16.4
		c1.3-1.6,2.8-3.1,4.3-4.5c0.4-0.4,3-2.8,3.7-3.5c5.9-5.8,7.8-12,7.8-29.9c0-10.1,1.1-16.3,3.3-20c1.8-3.1,4.2-4.6,9.3-6.4
		c3.7-1.3,4.5-1.5,5.4-1.9c2.2-0.8,4.2-1.7,6.2-2.8c5-2.6,9.8-6.3,14.7-11.6c25.3-27.4,36.8-34.8,55.6-34.8c8.5,0,14.9-2,22.5-6.4
		c1.8-1,13.9-8.8,18.1-11.3c2.8-1.6,5.6-3,8.6-4.4c7.8-3.5,13.7-4.4,26.2-4.7c7.6-0.2,10.9-0.5,14.5-1.6c4.8-1.5,8.5-4.2,11.5-8.9
		c2.1-3.2,6.7-6.9,14.4-11.8c1.9-1.2,3.7-2.3,5.6-3.5c9.6-5.9,11.6-7.1,14.9-9.6c5.4-4.1,9.5-8.5,13.9-15c1.4-2,2.8-4.3,4.8-7.4
		v-1.9c-1.8,3-3.7,5.9-5.6,8.8c-4.4,6.4-8.3,10.8-13.7,14.8c-3.3,2.4-5.3,3.7-14.8,9.6c-2.4,1.5-4,2.5-5.7,3.5
		c-7.8,5-12.5,8.6-14.7,12.1c-2.9,4.4-6.4,7-10.9,8.4c-3.6,1.1-6.7,1.4-14.3,1.6c-12.6,0.3-18.7,1.2-26.6,4.8
		c-3,1.4-5.8,2.8-8.6,4.4c-4.3,2.4-16.4,10.2-18.2,11.3c-7.5,4.3-13.7,6.3-22,6.3c-19.2,0-30.9,7.5-56.4,35.2
		c-4.8,5.2-9.5,8.8-14.4,11.4c-2,1-4,1.9-6.1,2.7c-0.8,0.3-1.7,0.6-2.8,1c-12.9,4.5-15.8,9.4-15.8,28.2c0,17.7-1.8,23.6-7.5,29.2
		c-0.7,0.7-3.2,3.1-3.7,3.5c-1.5,1.4-3,3-4.4,4.6c-3.6,4.2-7,9.5-10.4,16.6c-1.8,3.6-3.3,7.3-4.5,11.1c-3.4,10.1-5.2,20.7-5.8,32.2
		c-0.5,8.7-0.2,16.3,0.5,28.3c0.7,10.7,0.8,12.1,0.8,15.7c0,6.9-1.2,11.6-4.3,18.7l-0.1,0.3L311.1,600L311.1,600z M336.2,600
		c0-4.8,0.1-9.4,0.3-15c0.3-6.5-0.4-11.9-2.5-24.6l-0.3-1.8c-2.1-12.5-2.7-19.2-2-26.2c1-9,4.6-16.2,11.6-22
		c22.3-18.4,30.2-30.6,30.2-45.4c0-2.7-0.3-4.9-1-8.4c-1-4.7-1.1-5.5-1-7.3c0.2-2.3,1.1-4.2,3.2-6c2.5-2.3,6.8-4.5,13.4-6.8
		c10-3.6,15.9-9.4,24.8-21.9l1.8-2.5c9.1-12.9,14.7-18.1,24.4-20.6c13.4-3.3,20.5-5.5,25.5-7.7c1.9-0.8,3.6-1.7,5.4-2.8
		c1.4-0.8,2.8-1.7,4.3-2.6c2.5-1.6,4.9-1.9,10.9-2.1c5.5-0.2,8-0.5,11.3-1.5c3.8-1.2,7.3-3.5,10-6.5c4.7-5.1,9.6-7.3,17.2-8.6
		c1.1-0.2,1.9-0.3,3.8-0.6c7-1,10.1-1.7,13.8-3.7c4.6-2.5,6.9-4.5,23.7-19.8l3.1-2.9c9.6-8.6,16-13.7,21.2-16.3
		c4.1-2,7.4-4.5,10.8-8v-1.5c-3.6,3.9-7,6.5-11.2,8.6c-5.3,2.7-11.8,7.8-21.4,16.5l-3.1,2.9c-16.7,15.2-19,17.2-23.5,19.7
		c-3.5,1.9-6.6,2.6-13.5,3.6c-2,0.3-2.8,0.4-3.9,0.6c-7.8,1.3-12.9,3.6-17.8,8.9c-2.6,2.9-5.9,5-9.5,6.2c-3.1,1-5.5,1.2-11,1.4
		c-6.2,0.2-8.7,0.6-11.4,2.3c-2.5,1.6-3.1,2-4.2,2.6c-1.7,1-3.5,1.9-5.3,2.7c-5,2.2-12,4.3-25.3,7.6c-5.6,1.4-10.2,4.1-14.5,8.2
		c-3.3,3.1-5.9,6.5-10.4,12.8l-1.8,2.5c-8.8,12.4-14.6,18.1-24.3,21.6c-6.7,2.4-11,4.7-13.7,7c-2.3,2-3.4,4.2-3.6,6.7
		c-0.1,1.9,0,2.8,1,7.6c0.7,3.4,1,5.6,1,8.2c0,14.4-7.8,26.4-29.8,44.6c-7.3,6-11,13.4-12,22.7c-0.8,7.1-0.1,13.9,2,26.5l0.3,1.9
		c2.1,12.6,2.8,18,2.5,24.4c-0.2,5.6-0.3,10.3-0.3,15L336.2,600L336.2,600z M95.9,600c0.7-3.9,1.1-8.8,1.6-15.8
		c0.2-3.1,0.3-4,0.4-5.6c1.3-17,3.9-26.2,10.8-31.8c5.1-4.1,7.8-9.7,9.4-17.2c0.6-3.1,1.1-6.2,1.4-9.3C120.6,510,122,507,127,507
		c13.8,0,37.6,9,52.4,19.8c8.8,6.5,21.6,13.5,32.3,17.4c13.9,5,23.8,4.7,27.3-2.8c1.7-3.6,1.9-4.1,2.7-5.8c3-6.8,4.8-12.5,5.4-18.1
		c0.2-2.3,0.3-4.5,0-6.6c-0.4-3.3-1.7-5.4-4.6-8.5c-0.2-0.2-1.1-1.1-1.3-1.4c-1-1-1.6-1.8-2.3-2.6c-0.9-1.2-1.7-2.5-2.3-3.8
		l-1.1-2.1c-1.8-3.4-3-5.1-4.8-6.3c-5.6-3.8-15.4-5.8-29.4-7.2c-1.9-0.2-3.7-0.3-6.9-0.5c-1.4-0.1-2.9-0.2-4.3-0.3
		c-9.3-0.7-14.8-1.5-18.4-3C158,469.5,138,449.5,138,440c0-4.8,1.6-8.6,5-12.9c1.9-2.4,11-11.6,12.7-13.5c4.4-4.8,9.9-9.3,17.3-14.4
		c2.8-1.9,14.8-9.6,17.5-11.5c2.4-1.7,4.6-3.6,6.6-5.6c1.5-1.5,7-7.2,7.1-7.3c7-7.1,12.3-11.2,19.1-13.9c3.3-1.3,8-2.7,17.2-5.3
		c3.9-1.1,7.9-2.2,11.8-3.3c4.2-1.2,8.5-2.4,12.7-3.7c20.7-6.3,34.5-12.3,41.6-18.9c9-8.5,12.2-14.4,16.3-26.9c2-6.1,3-8.9,4.9-12.4
		c9.3-17.3,28.2-38.7,42.5-44.6c14.8-6.1,20.6-12.6,20.6-19.9c0-2.3,2.6-7.5,6.4-12.5c4.6-6,10.2-10.9,16-13.6
		c12.2-5.6,32.9-9.9,46.6-9.9c5.7,0,10.5-1.6,17.3-5.1c8.8-4.5,9.7-4.9,12.7-4.9c10.6,0,32.4-2.6,46.2-6l3.9-1
		c3.1-0.8,6.2-1.6,9.3-2.3c3.8-0.8,6.5-1.2,9.1-1.1c2.8,0.1,5.5,0.6,8.1,1.4c7.5,2.3,22.2-3.3,33.3-11.4v-2.4
		c-3.1,2.3-6.4,4.4-9.8,6.2c-9.2,4.8-18.3,7-22.9,5.7c-3.2-1-5.9-1.4-8.7-1.5c-2.8-0.1-5.7,0.3-9.6,1.2c-1.6,0.3-3.3,0.8-5.9,1.4
		l-3.5,0.9l-3.9,1c-13.7,3.4-35.3,6-45.8,6c-3.5,0-4.4,0.4-13.6,5.1c-6.6,3.4-11.1,4.9-16.4,4.9c-13.9,0-34.9,4.3-47.4,10.1
		c-6.1,2.8-12,8-16.8,14.2c-4.1,5.3-6.8,10.8-6.8,13.7c0,6.3-5.2,12.3-19.4,18.1c-14.8,6.1-34,27.7-43.5,45.4
		c-2,3.7-3.1,6.5-5.1,12.7c-4,12.2-7,17.8-15.7,26c-6.8,6.4-20.4,12.2-40.8,18.4c-4.2,1.3-8.4,2.5-12.7,3.7
		c-3.9,1.1-7.9,2.2-11.8,3.3c-9.3,2.6-14.1,4-17.4,5.4c-7,2.8-12.6,7.1-19.7,14.4c-0.2,0.2-5.6,5.8-7.1,7.3c-2,2-4.1,3.8-6.3,5.4
		c-2.7,1.9-14.7,9.6-17.5,11.5c-7.5,5.1-13.2,9.7-17.7,14.7c-1.7,1.8-10.8,11.1-12.8,13.5c-3.7,4.6-5.5,8.8-5.5,14.1
		c0,10.5,20.6,31.1,34.6,36.9c3.9,1.6,9.5,2.5,19.1,3.2l2.2,0.2c3,0.2,6,0.4,9,0.7c13.8,1.3,23.3,3.3,28.6,6.8
		c1.4,1,2.5,2.5,4.1,5.6l1.1,2.1c0.7,1.4,1.6,2.8,2.5,4.1c0.7,1,1.6,1.9,2.4,2.8l1.3,1.4c2.7,2.8,3.8,4.6,4.1,7.4c0.2,2,0.2,4,0,6.2
		c-0.6,5.3-2.3,10.8-5.3,17.5c-0.7,1.7-0.9,2.1-2.6,5.8c-2.9,6.1-11.7,6.4-24.8,1.7c-10.5-3.8-23.1-10.8-31.7-17.1
		C165.5,514.1,141.3,505,127,505c-3.6,0-5.9,1.6-7.4,4.7c-1.1,2.3-1.6,4.9-2.2,10.4c-0.6,5.3-0.8,6.6-1.3,9.2
		c-1.4,7.1-4,12.2-8.7,16c-7.5,6.1-10.2,15.7-11.5,33.2c-0.1,1.5-0.2,2.5-0.4,5.6c-0.5,7.2-0.9,12.2-1.6,16L95.9,600L95.9,600z
		 M104,600l0.9-4.4l1.1-5.6c2.5-13.2,4.2-19.8,6.6-23.7c1.7-2.8,3.6-5.4,7.6-10.4c8.8-11.1,11.5-15.4,11.5-19.9l0-1.7
		c0-1.2,0-2.5,0-3.7c0.2-4.7,1.3-7.5,4-8.5c3.5-1.3,9.7,0.5,19.2,6.4c9.6,5.9,17.5,10.7,25.9,15.7c1.3,0.8,14.3,8.4,17.7,10.5
		c2.1,1.3,4.3,2.6,6.4,3.9c14.3,8.8,40,5.2,47.7-8.2c3.6-6.3,4.6-8.6,7.8-17.5c0.4-1.2,0.8-2.1,1.2-3c1.1-2.6,2.4-5.1,4-7.5
		c9.4-14.1,15.1-26.4,15.1-37.3c0-3.5,0.7-6.4,3.3-14.5c0.5-1.6,0.8-2.7,1.2-3.7c3.8-12.6,3.1-19.9-4.7-25.1
		c-3.1-2.1-6.7-3.4-10.4-3.9c-7.4-1-14.9,1.2-24.5,6c-1.6,0.8-6.7,3.4-7.6,3.9c-1.2,0.6-2.5,1.4-4.2,2.4l-4.4,2.6
		c-11.4,6.8-19.9,9-32.1,6c-4.3-1-8.6-1.9-12.9-2.6c-13.4-2.4-18.8-3.8-23.2-6.4c-5.8-3.4-6.8-8.1-2.5-15.3
		c4-6.6,8.8-12.7,14.3-18.1c2.5-2.5,5-4.8,8.3-7.6c-0.1,0.1,6.2-5.3,7.8-6.8c2.3-2,4.5-4.2,6.6-6.4c7.6-8.4,12.7-13.3,19.9-18.4
		c9.8-7,21.2-12.2,34.8-15.4c37.2-8.7,51.2-12.8,59.2-18.1c8.8-5.9,21.6-25,37.2-55.2c5.2-10,12.1-18.2,20.9-25.4
		c5.1-4.2,9.5-7.2,17.4-12.2c7.5-4.7,9.7-6.2,11.6-8.4c1.3-1.6,2.3-3.3,3.1-5.1c0.6-1.3,2.9-6.5,3-6.8c1.1-2.6,2.5-5.2,3.9-7.6
		c6.4-10.7,15.6-17.6,30.7-20.3c12.7-2.3,19.7-2.7,29.5-2.3c3.3,0.1,4.2,0.2,5.7,0.1c5.3-0.1,10-1.1,17-3.9
		c20.6-8.2,38.5-12,58.8-12c3,0,6,0.1,10.4,0.5l2.1,0.2c12.5,1,18.3,1,25.6-0.6c4.9-1.1,9.5-2.8,13.9-5.3v-1.1
		c-4.4,2.5-9.1,4.4-14.1,5.4c-7.3,1.6-12.9,1.6-25.3,0.6l-2.1-0.2c-4.4-0.3-7.4-0.5-10.5-0.5c-20.4,0-38.5,3.7-59.2,12
		c-6.9,2.8-11.5,3.7-16.6,3.8c-1.5,0-2.4,0-5.6-0.1c-9.8-0.4-16.9,0-29.7,2.3c-15.4,2.8-24.9,9.8-31.4,20.8c-1.4,2.3-2.6,4.7-4,7.7
		c-0.1,0.3-2.4,5.5-3,6.8c-0.8,1.7-1.8,3.4-3,4.9c-1.8,2-4,3.5-11.4,8.2c-8,5-12.4,8-17.5,12.2c-8.9,7.3-15.9,15.6-21.1,25.7
		c-15.5,30-28.2,49.1-36.8,54.8c-7.8,5.2-21.8,9.3-58.8,17.9c-13.8,3.2-25.2,8.5-35.2,15.6c-7.3,5.2-12.4,10.1-20.1,18.6
		c-2.1,2.2-4.2,4.3-6.5,6.3c-1.7,1.5-7.9,6.8-7.8,6.8c-2.9,2.5-5.6,5-8.3,7.7c-5.6,5.5-10.4,11.6-14.4,18.3
		c-4.6,7.6-3.3,13,2.9,16.6c4.6,2.7,10.1,4.1,23.3,6.5c6.9,1.2,9.8,1.8,13.1,2.6c12.4,3.1,21.2,0.8,32.8-6.1l4.4-2.7
		c1.4-0.8,2.7-1.6,4.1-2.3c1-0.5,6.1-3.1,7.6-3.9c9.4-4.7,16.7-6.8,23.9-5.9c3.6,0.5,7,1.8,10,3.8c7.3,4.9,7.9,11.8,4.3,24
		c-0.3,1.1-0.6,2.1-1.1,3.7c-2.6,8.2-3.4,11.2-3.4,14.9c0,10.6-5.6,22.7-14.9,36.7c-1.6,2.4-3,5-4.1,7.6c-0.4,1-0.8,2-1.2,3.1
		c-3.2,8.8-4.2,11-7.8,17.3c-7.4,12.9-32.5,16.3-46.3,7.8c-2.1-1.3-4.3-2.6-6.4-3.9c-3.4-2-16.4-9.7-17.7-10.5
		c-8.4-5-16.4-9.8-25.9-15.7c-9.7-6-16.2-7.9-20.1-6.4c-3.2,1.2-4.4,4.4-4.6,9.4c0,1.1,0,2,0,3.8l0,1.7c0,4.2-2.7,8.4-10.9,18.7
		c-4.4,5.5-6.4,8.2-8.1,11c-2.5,4.1-4.2,10.8-6.7,24l-1.1,5.6c-0.3,1.7-0.6,3.2-0.9,4.6H104L104,600z M114.5,600l0-1
		c0-12.1,8.4-33,18.8-42.6c1.4-1.3,2.7-2.8,3.8-4.3c1.1-1.6,2.1-3.3,3-5c0.4-0.7,1.8-3.7,2.1-4.3c2.9-5.7,5.8-5.9,15.5,0.8l6.4,4.4
		c2.2,1.5,4.5,3.1,6.7,4.6c5.1,3.4,9.4,6.2,13.6,8.7c14.5,8.8,25.8,13.4,34.6,13.4c17.1,0,33.3-6.1,40.4-15.2
		c1.7-2.1,3.3-5.3,5.2-9.8c0.8-1.9,1.6-4.1,2.7-6.8c0.5-1.4,2.4-6.4,2.7-7.3c4.6-12.3,7.7-18.9,11.4-23c8.1-9,15.1-36.4,15.1-53.3
		c0-1.8,0.2-3,1-8.1c0.3-1.7,0.5-3.4,0.8-5.1c0.6-5.7,0.2-9.9-1.8-13c-4.9-7.6-20.4-9.8-39.5-5.2c-7.5,1.8-13.7,3.9-19.1,6.4
		c-5.3,2.4-17.2,9.8-16.6,9.4c-6.5,3.5-12.5,4-24.1,1.2c-28.9-7-29.3-7.7-14.7-25.2c17.2-20.7,46.8-45.8,55.6-45.8
		c10.1,0,54.2-12,66.2-18c9.7-4.8,24.6-21.4,37.2-38.1c0.8-1,13.5-21.7,19.2-29.6c9.3-13,18.1-22.3,26.6-27.2
		c7.4-4.2,13.4-10.5,19.1-19c2-2.9,10.5-17.7,12.7-20.3c1.5-1.8,2.8-3,4.1-3.6c14-6.2,24-9,38.8-9h29c4.1,0,7.4-0.4,23.1-2.5
		l4.3-0.6c9.9-1.3,16.5-1.9,21.6-1.9c1.7,0,2.9,0,6,0c18.7,0.2,28.7-0.5,45.1-4.1c3.1-0.7,6.1-1.7,8.9-3.2v-1.1
		c-3,1.5-6,2.6-9.1,3.3c-16.3,3.6-26.3,4.2-44.9,4c-3.1,0-4.4,0-6,0c-5.2,0-11.9,0.6-21.8,1.9l-4.3,0.6c-15.6,2.1-18.9,2.5-22.9,2.5
		h-29c-15,0-25.1,2.8-39.2,9c-1.5,0.7-3,2-4.5,3.9c-2.2,2.8-10.8,17.5-12.7,20.4c-5.6,8.4-11.5,14.6-18.8,18.7
		c-8.7,5-17.6,14.4-27,27.5c-5.7,8-18.5,28.6-19.2,29.6c-12.5,16.7-27.4,33.1-36.8,37.9c-11.9,6-55.9,18-65.8,18
		c-9.3,0-38.9,25.3-56.4,46.2c-15.2,18.2-14.3,19.7,15.3,26.8c11.8,2.9,18.1,2.3,24.8-1.3c-0.6,0.3,11.3-7,16.5-9.4
		c6.1-2.7,12.4-4.8,18.9-6.3c18.8-4.5,33.9-2.3,38.5,4.8c1.9,2.9,2.3,6.9,1.7,12.4c-0.2,1.5-0.4,2.9-0.7,5.1c-0.8,5.2-1,6.4-1,8.3
		c0,16.7-7,43.9-14.9,52.7c-3.8,4.2-6.9,10.8-11.6,23.3l-2.7,7.3c-1,2.7-1.9,4.9-2.7,6.8c-1.9,4.5-3.5,7.6-5.1,9.6
		c-6.9,8.8-22.7,14.8-39.6,14.8c-8.6,0-19.8-4.6-34.1-13.3c-4.1-2.5-8.5-5.3-13.5-8.7c-2-1.4-4.1-2.8-6.7-4.6
		c-0.3-0.2-5.1-3.5-6.4-4.4c-10.1-6.9-13.8-6.7-17-0.4c-0.4,0.7-1.7,3.6-2.1,4.4c-0.8,1.7-1.8,3.3-2.9,4.9c-1.1,1.5-2.3,2.9-3.7,4.2
		c-10.7,9.8-19.2,31-19.2,43.4c0,0.3,0,0.7,0,1L114.5,600L114.5,600z M84.8,600c1.1-2.5,1.7-5.2,1.7-8c0-19.8,4.8-41.6,11.8-48.7
		c5.3-5.2,7.9-8.5,10.1-13c2.7-5.6,4.1-12.3,4.1-21.3c0-6.6,1.1-11.2,3.2-14.5c1.6-2.5,3.4-4,7.3-6.4c3-1.9,4.2-2.7,5.3-3.7
		c4.7-4.1,6.8-6.4,8-9.8c1.5-4.3,1-9.5-1.9-16.7c-1.2-2.8-2.5-5.5-4-8.2l-0.9-1.7c-0.9-1.6-1.8-3.3-2.6-5c-5-10.3-3.7-18.1,7.5-28.6
		c8.3-7.9,17.2-15.1,26.7-21.5c3.9-2.7,16.8-10.8,19.3-12.5c2.7-2,5.3-4.1,7.8-6.4c0,0,7.2-6.4,9.5-8.3c4.1-3.6,8.4-7,12.9-10.1
		c4.6-3.1,8.8-5.2,12.6-6.2c7.3-1.9,14.6-3.9,21.8-6c12.6-3.7,22.1-6.9,28.3-10.1c2.4-1.1,4.8-2,7.3-2.7c8.8-2.7,12.2-4.2,17.3-8.3
		c6.9-5.6,13.3-14.5,19.6-28.3c15.9-34.6,19-39.1,31.9-48.8c3.1-2.3,6.2-4,11.3-6.3l2.3-1c6-2.7,8.8-4.1,11.9-6.4
		c4.1-3,7.4-6.9,9.7-11.4c1.9-3.9,2.6-6.5,3.5-12.6c0.8-5,1.4-7.3,3.3-9.8c2.4-3.2,6.8-6,13.9-8.7c3.9-1.4,7.9-2.7,12-3.7
		c16.2-4.3,25.1-5.3,39.4-5.8c7-0.2,9.7-0.6,13-2.1c1.3-0.6,2.6-1.4,3.8-2.2c3.6-2.6,7.9-4.4,12.9-5.5c5.6-1.3,10.5-1.5,18.5-1.4
		l2.4,0c3,0,6.9-1,19.3-4.5c11.4-3.3,16.5-4.5,19.7-4.5c0.8,0,1.8,0.1,3.4,0.4l5,0.9c10,1.7,17.7,1.9,25.6-0.2
		c7.8-2.1,14.6-6.5,20-13.6v-1.6c-5.5,7.5-12.3,12.1-20.3,14.2c-7.7,2.1-15.3,1.9-25.2,0.2l-5-0.9c-1.6-0.3-2.7-0.4-3.5-0.4
		c-3.3,0-8.5,1.2-19.3,4.3c-12.9,3.7-16.9,4.7-19.7,4.7l-2.4,0c-8-0.1-13,0.2-18.7,1.4c-5.1,1.1-9.5,3-13.2,5.7
		c-1.2,0.9-2.4,1.6-3.6,2.1c-3.2,1.4-5.8,1.8-12.7,2c-14.3,0.4-23.3,1.5-39.6,5.8c-4.7,1.2-8.7,2.5-12,3.7c-7.3,2.7-11.8,5.6-14.4,9
		c-2,2.7-2.8,5.1-3.5,10.3c-0.9,6-1.5,8.5-3.4,12.3c-4.2,8.4-9.2,12-21.1,17.4l-2.3,1c-5.1,2.3-8.3,4-11.4,6.4
		c-13.1,9.8-16.2,14.4-32.1,49.2c-6.3,13.6-12.5,22.4-19.3,27.9c-5,4-8.3,5.4-17,8.1c-2.6,0.7-5.1,1.6-7.5,2.8
		c-6.2,3.1-15.6,6.4-28.1,10c-6.2,1.8-9,2.6-21.8,6c-3.9,1-8.1,3.2-12.9,6.3c-4,2.6-8.1,5.9-13.1,10.1c-2.2,1.9-9.5,8.3-9.5,8.3
		c-3.4,3-5.8,4.9-7.8,6.3c-2.4,1.7-15.3,9.8-19.2,12.5c-9.5,6.4-18.5,13.6-26.8,21.5c-11.4,10.9-12.8,19.1-7.7,29.8
		c0.8,1.7,1.7,3.4,2.6,5l0.9,1.7c1.5,2.6,2.8,5.3,4,8.1c2.8,7,3.3,12,1.9,16c-1.1,3.2-3.1,5.5-7.7,9.4c-1.2,1-2.5,2-3.9,2.8
		c-5.3,3.3-7.2,4.8-8.9,7.5c-2.2,3.5-3.4,8.3-3.4,15.1c0,8.9-1.3,15.5-3.9,20.9c-2.1,4.4-4.7,7.6-9.9,12.7
		C90.3,550,85.5,572,85.5,592c0,2.8-0.6,5.5-1.8,8L84.8,600L84.8,600z M367.4,600l-1.1-6c-3.1-16.2-4-26-2.7-37
		c0.7-5.9,0.8-9.8,0.5-15.5c-0.2-4.4-0.2-5.6,0.2-7.4c0.8-4.1,3.3-8.2,10.1-15.9c9.1-10.3,12.4-15.6,20-30.4
		c1.3-2.6,2.3-4.4,3.4-6.3c0.9-1.5,1.8-3,2.7-4.5c3-4.6,6.9-8.3,16.6-16.6c11.3-9.7,15.7-14,18.4-19.5c0.7-1.5,1.4-2.9,2-4.5
		l1.5-4.1c1.8-4.8,3.1-7.3,5.8-9.7c3.3-3,8.4-5.4,16.5-7.5c5-1.3,20.5-5.1,21.4-5.3c16.3-4.1,25.5-7.4,33.8-12.7
		c5.8-3.8,5.8-3.8,27.6-16.5l2.6-1.5c10.3-6,17.1-10.2,22.8-14c3-2,6-4.1,8.8-6.4c1.6-1.3,6.6-5.2,6.4-5.1c4.8-3.8,10-7.2,15.5-9.9
		V343c-5.7,2.8-11.1,6.3-16.1,10.3c-2.1,1.7-4.2,3.4-6.4,5.1c-2.9,2.2-5.8,4.3-8.8,6.3c-5.6,3.8-12.5,8-22.7,14l-2.6,1.5
		c-21.8,12.8-21.8,12.8-27.7,16.5c-8.1,5.2-17.3,8.5-33.5,12.6c-0.8,0.2-16.4,4-21.4,5.3c-14.9,3.9-19.3,7.9-22.9,17.8
		c-0.5,1.4-1,2.7-1.5,4c-0.6,1.6-1.2,3-1.9,4.4c-2.6,5.3-6.9,9.5-18.1,19.1c-9.8,8.4-13.7,12.1-16.8,16.8c-0.9,1.4-1.9,2.9-2.8,4.5
		c-1.1,1.8-2,3.7-3.4,6.3c-7.5,14.7-10.7,19.9-19.8,30.1c-7,7.8-9.6,12-10.4,16.3c-0.4,2-0.4,3.2-0.2,7.6c0.2,5.6,0.2,9.5-0.5,15.3
		c-1.3,11.1-0.3,21,2.7,37.3l1.1,5.8L367.4,600L367.4,600z M290.8,600c0.4-1.2,0.8-2.4,1.2-3.7c1.1-3.4,2-6.9,2.8-10.6
		c2.7-12.9,3.3-23.9,3.3-41.7c0-6.7-2.3-11.8-6.1-11.8c-4.1,0-8.6,6.2-12.8,18.4c-9.6,27.6-21.8,40.3-41.1,40.3
		c-22.1,0-28.7-1.3-47.6-9.9c-3.2-1.5-6.2-3.1-9.2-4.9c-2.9-1.8-12.8-8.5-14.9-9.8c-4.8-2.7-8.3-3.1-11.8-0.9
		c-0.8,0.5-1.5,1.1-2.2,1.8c-1.3,1.3-2.7,2.6-4.2,3.7c-0.6,0.5-1.2,1-2,1.6c-0.7,0.5-1.3,1.1-2,1.6c-8.8,7-12.1,12.2-12.1,22.8
		c0,1,0,2-0.1,3h2c0.1-1,0.1-2,0.1-3c0-9.8,3-14.6,11.3-21.2l1-0.8c1-0.8,2.1-1.6,3.1-2.4c1.5-1.2,2.9-2.5,4.3-3.9
		c0.6-0.6,1.3-1.1,1.9-1.5c2.7-1.7,5.5-1.4,9.7,1c2.1,1.1,11.9,7.9,14.8,9.7c3,1.9,6.2,3.6,9.4,5c19.2,8.7,26,10.1,48.4,10.1
		c20.3,0,33.1-13.3,42.9-41.7c4-11.5,8-17.1,10.9-17.1c2.3,0,4.1,4,4.1,9.8c0,17.7-0.6,28.6-3.3,41.3c-0.8,3.6-1.6,7.1-2.7,10.4
		l-1.4,4.3H290.8L290.8,600z M141.5,600h1.1c2.5-4.5,4.8-9.1,6.8-13.8c2.6-6,5.5-9.2,8.6-10c3.3-0.8,6.5,0.7,11.7,4.9
		c5.7,4.6,6.3,5,8.2,5.3c1.5,0.2,4.1,1.1,8.6,2.9c1.3,0.5,10.8,4.3,13.9,5.5c2.8,1.1,5.7,2.2,8.5,3.2c1.9,0.7,3.8,1.3,5.5,1.9h3.4
		c-2.7-0.8-5.5-1.7-8.6-2.8c-2.6-0.9-5.4-2-8.5-3.2s-12.6-5-13.9-5.5c-4.6-1.8-7.3-2.7-8.9-3c-1.7-0.2-2.3-0.7-7.7-5.1
		c-5.4-4.4-8.8-6.1-12.6-5.1c-3.5,0.9-6.5,4.2-9.2,10.5c-2,4.5-4.2,8.9-6.5,13.3L141.5,600L141.5,600z M254.4,600h3
		c3.3-1.3,6.3-3.2,8.9-5.5c1.6-1.4,3.4-3.6,5.5-6.5c1.1-1.5,2.2-3.1,3.4-5.1c0.8-1.3,1.7-2.6,2.5-3.9l0.5-0.8l0.9-1.5
		c1-1.6,2.1-3.2,3.2-4.8c0.9-1.3,1.6-2,2-2.1c0.1,0,0.1,0.1,0.1,1.1l0,2.1c0,6.9-0.1,11.2-0.7,16.2c-0.4,3.6-1.2,7.2-2.5,10.7h1.1
		c1.2-3.4,2-7,2.4-10.6c0.6-5,0.8-9.4,0.7-16.3l0-2.1c0-1.6-0.5-2.4-1.5-2c-0.6,0.2-1.4,1-2.4,2.5c-1.1,1.6-2.2,3.2-3.3,4.9
		l-0.9,1.5l-0.5,0.8c-0.8,1.3-1.7,2.6-2.5,3.9c-1.3,1.9-2.4,3.6-3.4,5c-2,2.8-3.8,4.9-5.3,6.3C262.4,596.6,258.6,598.7,254.4,600
		L254.4,600z M70.7,600c3.1-3.6,4.8-8.5,4.8-15c0-18.4,0-17.2,1-20.5c0.6-1.8,1.4-3.6,3.2-6.4c0.4-0.7,4.9-7.8,6.8-10.9
		c3-4.9,11-16.5,12.2-18.6c3.6-6.3,4.8-12.4,4.8-24.7c0-7.6,2.4-13.8,8-22.9l2.8-4.6c0.9-1.5,1.7-2.9,2.5-4.5c1.7-3.3,2.6-6,2.7-8.7
		c0.2-4.1-1.4-7.9-5.2-11.7c-5.5-5.5-9.7-5.9-12.7-1.7c-2.2,3.1-3.6,8-5.2,16.9l-0.8,4.6c-0.5,3.2-1.2,6.4-2.1,9.5
		c-1.3,4.2-3.6,7.3-8.1,11.8c-0.4,0.4-2.6,2.6-3.3,3.2c-6.5,6.5-9.9,11.8-11.6,20l-1.2,5.5c-0.9,4.1-1.6,7-2.3,9.9
		c-3.6,13.6-9.6,25.8-22.4,44.4C36.8,587,33.4,594.8,33.5,600h1c-0.1-4.8,3.2-12.6,10.9-23.7c12.9-18.8,18.9-31,22.6-44.7
		c0.8-2.9,1.5-5.8,2.3-9.9l1.2-5.5c1.7-8,5-13.1,11.4-19.5l3.3-3.2c4.7-4.7,7-7.8,8.4-12.3c0.7-2.3,1.3-4.9,2.1-9.6
		c0,0,0.6-3.5,0.8-4.6c1.6-8.7,2.9-13.5,5.1-16.5c2.6-3.6,6.1-3.3,11.2,1.9c3.6,3.6,5.1,7.1,4.9,10.9c-0.1,2.5-1,5.1-2.6,8.3
		c-0.8,1.5-1.6,3-2.5,4.4l-2.8,4.6c-5.6,9.2-8.1,15.6-8.1,23.4c0,12.1-1.2,18.1-4.7,24.2c-1.2,2.1-9.2,13.6-12.2,18.6
		c-1.9,3.1-6.4,10.2-6.8,10.9c-1.8,2.9-2.7,4.7-3.3,6.6c-1.1,3.4-1,2.2-1,20.8c0,6.7-1.8,11.6-5.2,15H70.7L70.7,600z M310.1,0
		c-5,11.7-6.6,17.9-6.6,28c0,7.3-1.9,10.8-5.9,12.1c-3.3,1-5.5,0.9-17.1-0.5c-11.7-1.4-19.4-1.6-28.5-0.1c-6.2,2.5-25.8,7-31.9,7
		c-11.1,0-36.6-2.9-53.9-7c-6-1.5-12.4-0.6-17.7,2.6c-4.2,2.4-7.2,5.1-13.5,11.5c-6.8,6.9-10,9.7-14.1,11.9
		c-7.3,3.9-11.5,7.9-13.8,12.7c-1.9,4-2.4,8.1-2.4,15.7c0,3.8-2.4,5.9-8.9,8.8c0.1,0-3,1.3-3.8,1.7c-9.1,4.2-13.3,8.7-13.3,17.4
		c0,12.1-4.7,18.6-16.9,27.1l-4.5,3.1c-1.9,1.3-3.3,2.3-4.7,3.3c-0.9,0.7-1.8,1.3-2.7,2c-7.4,5.8-11.3,14.9-15.9,33.8
		c-0.6,2.6-3.3,14-4.1,17.1c-1.8,7.2-3.4,13.2-5.2,19.3c-1.4,4.5-4.5,15.1-5,16.5c-1,3.3-2.7,6.6-2.4,6.1c-4.5,5.9-8.7,12-12.6,18.2
		L0,276.1v1.9l5.4-8.7c5.8-9.2,11.8-16.9,12.6-18.3c0.8-1.4,1.4-2.9,2.5-6.3c0.5-1.5,3.6-12,5-16.5c1.9-6.4,3.7-12.8,5.2-19.3
		c0.8-3.1,3.4-14.6,4.1-17.1c4.6-18.7,8.4-27.7,15.6-33.3c0.8-0.7,1.7-1.3,2.6-2c1.4-1,2.8-2,4.7-3.3l4.6-3.1
		c12.5-8.7,17.3-15.4,17.3-28c0-8.3,3.9-12.5,12.7-16.5c0.9-0.4,3.9-1.8,3.8-1.7c6.8-3,9.4-5.3,9.4-9.7c0-7.5,0.5-11.4,2.3-15.3
		c2.2-4.6,6.3-8.5,13.4-12.3c4.3-2.3,7.5-5.1,13.8-11.5c6.8-6.9,9.8-9.6,13.9-12c5.1-3.1,11.2-4,16.9-2.5c17.4,4.1,43,7,54.1,7
		c6.2,0,25.9-4.5,32.1-7c9-1.4,16.6-1.2,28.2,0.1c11.9,1.4,14.1,1.5,17.6,0.4c4.5-1.5,6.6-5.4,6.6-13c0-10,1.6-16.1,5.5-25.2
		c0.4-1,0.8-1.9,1.2-2.8L310.1,0L310.1,0z M335.8,18.3c0.5,10.8,0.7,15.7,0.7,22.7c0,9.5-4.5,16.8-12.7,22.3
		c-6.4,4.3-14.7,7.3-23.9,9.2c-3.6,0.5-9.3,0.5-20.8,0.3c-8.4-0.2-11-0.3-14.1-0.3c-2.7,0-5.4,0.5-8,1.4c-0.9,0.3-4.6,1.8-5.6,2.1
		c-6.4,2.3-13.4,3.5-24.5,3.5c-8,0-13.3-1.3-22.1-4.8l-3.2-1.3c-12.8-5-21.8-5.3-37.9,1.1c-11.3,4.5-18.4,9.4-22.7,15.2
		c-3.3,4.4-4.5,8.1-6.1,16.2c-1.2,6-1.9,8.6-3.4,11.9c-1.6,3.3-3.7,5.4-6.6,6.7c-2.2,1-4.2,1.4-8.7,2.1c-4.9,0.7-7.1,1.2-9.5,2.4
		c-3.1,1.6-5.5,4-7.2,7.9c-3.7,8.3-7.6,13.6-14,19.4c-2.4,2.1-13.1,11-15.9,13.4c-8.4,7.2-14.1,17.7-19,32.4
		c-1.1,3.2-2.1,6.5-3.3,10.7c0,0.1-2.3,8-2.9,10.1c-8.4,28.7-17.8,52.7-25.9,60.8c-2.9,2.8-5.1,5.7-9.2,11.2c-3.7,5.1-6.7,9-9.5,12
		v1.5c2.7-2.9,5.5-6.4,8.9-11.1c5.3-7.3,7.6-10.2,10.4-13c8.3-8.3,17.6-32.3,26.1-61.2c0.6-2.1,2.9-10.1,2.9-10.1
		c1-3.6,2.1-7.2,3.3-10.7c4.9-14.6,10.5-24.9,18.7-32c2.8-2.4,13.5-11.2,15.9-13.4c6.5-5.9,10.5-11.3,14.2-19.8
		c2.8-6.5,6.6-8.3,15.6-9.6c5-0.7,7-1.1,9.3-2.2c3.1-1.4,5.4-3.7,7.1-7.2c1.6-3.4,2.3-6,3.5-12.1c1.6-8,2.8-11.5,5.9-15.8
		c4.1-5.6,11.1-10.4,22.3-14.8c15.9-6.3,24.6-6,37.2-1.1l3.2,1.3c8.9,3.5,14.4,4.9,22.5,4.9c11.2,0,18.2-1.2,24.8-3.5
		c1-0.4,4.7-1.8,5.6-2.1c2.7-0.9,4.9-1.4,7.6-1.4c3,0,5.7,0.1,12.4,0.2c13.3,0.3,18.9,0.3,22.7-0.2c9.4-1.9,17.8-4.9,24.3-9.3
		c8.4-5.7,13.1-13.4,13.1-23.2c0-7-0.2-11.9-0.6-21.6c-0.4-7.9-0.6-13.8-0.6-19.4h-1C335.3,5.5,335.4,11,335.8,18.3z M91.1,8.5
		c-2.4,4.5-3,5.9-5.4,13.3c-0.7,2.1-1.2,3.4-1.8,4.8c-2.1,4.3-5.6,8.3-12.5,13.5C63,46.6,56.6,57.3,50.7,72.6
		c-2.4,6.3-8.8,25.7-9.6,28c-2.6,6.9-6.4,12.3-15.3,23.1l-2.7,3.3c-6.1,7.5-9.5,12.3-12,17.6c-2,4.3-6,8.7-11.1,12.6v2.4
		c5.8-4.3,10.6-9.2,12.9-14.1c2.4-5.1,5.7-9.8,11.7-17.1l2.7-3.2c9.1-11,12.9-16.5,15.6-23.7c0.9-2.4,7.2-21.8,9.6-28
		c5.8-15,12-25.4,20-31.5c7.2-5.5,10.8-9.6,13.1-14.3c0.8-1.6,1.4-3.3,1.9-5c2.4-7.3,2.9-8.6,5.3-13c1.4-2.7,2.3-5.5,3-9.5h-2
		C93.4,3,92.5,5.9,91.1,8.5z M102.9,0c-1.6,8-2.8,12.3-4.4,14.7c-1.6,2.7-3,5.5-4.2,8.4c-1.8,4.4-3.4,8.9-4.8,13.5
		c-1.6,1.7-2.5,2.5-3.4,3.4c-2.6,2.5-5.1,5.2-7.5,7.8c-1,1.1-2,2.2-2.9,3.2c-3.5,4-6.1,7.4-7.3,9.9c-1,2-2.1,6.1-3.7,13.2
		c-0.6,2.9-3.7,17.1-4.5,21.1c-3.6,16.3-6.6,26.5-9.8,31.7C43,139.1,40,142.3,13.6,167.6c-4.1,4-8.7,7.5-13.6,10.4v1.1
		c5.2-3,10.1-6.6,14.3-10.9c26.4-25.4,29.4-28.6,37.1-41.1c3.3-5.3,6.3-15.5,9.9-32c0.9-3.9,3.9-18.2,4.5-21.1
		c1.6-7,2.7-11.1,3.6-13c1.2-2.4,3.7-5.7,7.2-9.7c4.1-4.6,8.4-9,12.8-13.3c1.7-3.2,2-4.3,2.4-5.4c1.1-3.2,2.2-6.4,3.5-9.4
		c1.2-2.8,2.5-5.6,4.1-8.2c1.6-2.6,2.9-7,4.5-15.3L102.9,0L102.9,0z M83.7,0c-2,4.4-5.8,8.3-10.8,11.5c-7.1,4.4-16.2,7.1-23.9,7.1
		c-5.3,0-8.7,2.5-10.7,7.2c-1.5,3.7-2.1,8.5-2.1,15.3c0,1.7,0,3.2,0.1,6c0.1,3.3,0.1,4.4,0.1,6c0,7.2-1.2,14.3-3.4,21.1
		c-1.4,3.7-1.9,4.7-2.4,5.9c-8.2,18.7-16.6,37.3-25.2,55.8c-1.5,3.4-3.4,6.6-5.6,9.6v1.6c2.6-3.3,4.7-7,6.4-10.8
		c6.7-14.6,13.3-29.2,19.9-43.9c2.4-5.3,4.7-10.6,7-15.9c0.8-2.3,1.6-4.6,2.2-7c1.3-5.2,2-10.8,2-16.5c0-1.5,0-2.7-0.1-6
		c-0.1-2.8-0.1-4.3-0.1-6C37.2,26.5,40.1,19.5,49,19.5c7.9,0,17.2-2.7,24.4-7.2C78.8,8.9,82.7,4.7,84.8,0H83.7L83.7,0z M366.3,0
		c1.9,10.1,2.2,12.5,2.2,17c0.2,1.7,0.4,3.4,0.6,5.1c0.7,7.9,0.8,16.2,0,23.9c-1,8.6-3,15.7-6.5,20.7
		c-11.1,16.2-39.3,28.8-65.6,28.8c-5.1,0-10.5,0.3-16.4,0.8c-8.2,0.8-16.3,1.9-24.4,3.2c-21.5,3.3-27.6,4-36.2,4
		c-6.8,0-12-1-20.5-3.6l-3.7-1.1c-1.4-0.4-2.6-0.7-3.7-1c-8.2-2.1-14.6-2.1-22.3,0.8c-4.2,1.5-7.7,4.6-9.7,8.7
		c-1.7,3.2-2.6,6.2-4,12.5c-1.6,7.1-2.4,10-4,13c-1.9,3.8-5.2,6.6-9.3,7.9c-3.8,1.2-7,2.3-9.6,3.5c-6.7,2.9-10.4,5.8-14.2,10.8
		c-1.3,1.8-1,1.3-5.5,8c-1.9,2.9-4.5,5.7-8.3,8.9c-2,1.8-10.7,8.8-12.9,10.7c-7.4,6.4-12.7,12.3-16.8,19.4
		c-4.3,7.4-7.9,18.5-11.4,33.5c-1.4,6-2.7,12-3.8,18l-1.1,5.5c-1.8,8.9-2.8,13.2-3.7,16.1c-6.8,20.3-17.2,41.9-26.9,50.8
		c-5.1,4.6-8,7-10.9,8.7c-0.9,0.6-1.9,1.1-2.8,1.5c-0.4,0.2-9.6,4.4-14.1,6.6L0,342.9v1.1l1.2-0.6c4.5-2.3,13.7-6.4,14.1-6.7
		c1.1-0.5,2-1,2.9-1.6c3-1.8,6-4.2,11.1-8.9c9.9-9,20.3-30.8,27.1-51.2c1-3,2-7.3,3.8-16.3l1.1-5.4l1.2-5.8
		c0.9-4.5,1.8-8.4,2.6-12.1c3.5-15,7.1-26,11.3-33.3c4-7,9.3-12.8,16.6-19.1c2.2-1.9,10.9-8.9,12.9-10.7c3.8-3.3,6.5-6.2,8.5-9.1
		c4.4-6.6,4.1-6.1,5.4-7.9c3.7-4.9,7.3-7.7,13.8-10.5c3.1-1.3,6.3-2.4,9.5-3.4c4.3-1.3,7.9-4.3,9.9-8.4c1.7-3.1,2.5-6,4-12.6
		c1.5-6.8,2.4-9.8,4-12.8c1.9-3.8,5.2-6.8,9.2-8.2c7.5-2.8,13.7-2.8,21.7-0.7c1.1,0.3,2.3,0.6,3.6,1l2.8,0.8
		c9.5,2.8,14.8,3.9,21.7,3.9c8.7,0,14.8-0.8,36.3-4c8.1-1.3,16.2-2.3,24.4-3.2c5.8-0.6,11.2-0.8,16.3-0.8
		c26.6,0,55.1-12.7,66.4-29.2c3.5-5.1,5.7-12.4,6.6-21.2c0.9-9.3,0.8-18.6-0.4-27.8c-0.1-5.6-0.5-8.3-2.3-18.3L366.3,0L366.3,0z
		 M13.5,15.8c-2,4.5-2.8,9.5-2.5,15.3c0.2,4.4,0.7,7.8,2.3,16.3c1.1,5.9,1.6,8.7,1.9,12.1c0.9,8.7,0.3,15.8-2.7,22.3
		C8.6,90.4,4.4,98.9,0,107.3v2.1c4.8-8.9,9.3-18,13.5-27.2c3-6.7,3.8-13.9,2.8-22.8c-0.4-3.4-0.9-6.3-1.9-12.2
		c-1.6-8.4-2.1-11.8-2.3-16.1c-0.3-5.7,0.5-10.5,2.4-14.9c2.7-6,3.5-8.6,5.4-16.2h-1C17,7.3,16.2,9.9,13.5,15.8z M299.4,0h-1.1
		c-1.3,3.8-2.9,7.3-4.7,10.8c-2.6,4.8-4.1,8.6-5,12.2l-0.4,1.9l-0.3,1.4c-0.2,0.9-0.3,1.4-0.6,1.7c-0.5,0.7-1.4,0.9-4.3,0.8
		c0.9,0-9.8-0.3-15-0.3c-10.2,0-18.6,0.8-29.6,2.6c-16.8,2.6-17.6,2.8-23.5,2.5c-2.7-0.1-5.2-0.5-7.8-1.1c-17.9-4.2-46.5-5.9-55.3-3
		c-2.8,0.9-6.1,2.9-9.8,5.7c-2.1,1.6-4.2,3.4-6.6,5.5c-1.4,1.3-9.2,8.5-10.8,9.8c-1.5,1.2-8.2,7.5-8.9,8c-1.6,1.5-3.1,2.7-4.5,3.9
		c-4.8,3.9-8.6,6-12.5,6c-2.1,0-2.9,0-3.5-0.3c-0.7-0.3-0.9-1-0.6-2.5c0.7-3.5,4.4-10.6,12.7-24.5c5.7-9.6,9.5-18.2,11.9-26.4
		c1.5-5.1,2-7.5,3-14.8h-1c-1,7.1-1.5,9.5-3,14.5c-2.4,8.2-6.1,16.7-11.8,26.2c-8.4,14-12.1,21.2-12.8,24.8c-0.4,1.8,0,3,1.1,3.6
		c0.8,0.4,1.6,0.5,5.1,0.4c3,0,6.9-2.2,11.9-6.2c1.6-1.3,3.1-2.6,4.6-3.9c0.7-0.6,7.4-6.8,8.8-8c1.6-1.3,9.4-8.6,10.8-9.8
		c2.1-1.9,4.3-3.7,6.5-5.5c3.6-2.8,6.8-4.7,9.5-5.6c8.5-2.9,37-1.1,54.7,3c2.6,0.6,5.3,1,8,1.1c5.9,0.3,6.8,0.1,23.7-2.5
		c11-1.7,19.3-2.6,29.5-2.6c5.2,0,16,0.3,15,0.3c3.2,0,4.4-0.2,5.1-1.3c0.4-0.6,0.6-1.3,0.7-2.1l0.3-1.5l0.4-1.8
		c0.8-3.5,2.3-7.3,4.9-12C296.4,7.6,298,3.9,299.4,0L299.4,0z M288.7,0c-5.5,16.6-8.7,20-17.7,20c-4.6,0-10.3,0.3-28.8,1.5l-1.5,0.1
		c-15.5,1-23.4,1.4-28.6,1.4c-5.2,0-13.1-1-28.6-3.3l-1.5-0.2C163.3,16.7,157.6,16,153,16c-4.9,0-8.1,1.1-12,3.7
		c-0.1,0.1-1.8,1.2-2.3,1.4c-2.1,1.3-3.7,1.9-5.7,1.9c-1.6,0-2.1-0.5-2.1-2.2c0-1.3,0.2-2.5,0.5-3.7c0.2-0.8,0.9-4.4,1.1-5.3
		c0.8-4.3,1.3-7.9,1.5-11.8h-2c-0.2,3.7-0.7,7.2-1.5,11.4c-0.2,0.9-0.9,4.5-1.1,5.3c-0.3,1.8-0.5,3.1-0.5,4.1c0,2.8,1.3,4.2,4.1,4.2
		c2.4,0,4.3-0.7,6.7-2.2c0.5-0.3,2.2-1.4,2.3-1.5c3.7-2.3,6.5-3.3,11-3.3c4.5,0,10.2,0.8,28.6,3.5l1.5,0.2C198.8,24,206.6,25,212,25
		c5.3,0,13.2-0.4,28.8-1.4l1.5-0.1c18.5-1.2,24.2-1.5,28.7-1.5c10.2,0,13.9-4.1,19.8-22H288.7z M141.5,0c-1.9,3.6-2.5,4.8-2.6,6.1
		c-0.2,1.7,0.8,2.7,3.1,3.1c1.9,0.3,3.9,0.4,11,0.4c6,0,12.9,0.6,21.2,1.6c3.9,0.5,8,1.1,13.1,1.9c24.1,3.7,22.6,3.5,27,3.5
		c24.3,0,52.1-2.2,60.9-7.1c3.2-1.7,5.6-5,7.2-9.4h-1.1c-1.6,4.1-3.7,7-6.6,8.6c-8.6,4.7-36.4,6.9-60.4,6.9c-4.3,0-2.8,0.2-26.8-3.5
		c-5.1-0.8-9.2-1.4-13.1-1.9C166,9.1,159,8.5,153,8.5c-7,0-9-0.1-10.8-0.4c-1.9-0.3-2.5-0.8-2.3-2c0.1-1.1,0.7-2.3,2.8-6.2L141.5,0
		L141.5,0z M217.9,0h-3.4c7.2,2.3,13,3.5,17.5,3.5c11.2,0,19.1-1,25.4-3.5h-3c-5.7,1.8-12.8,2.5-22.4,2.5
		C228.3,2.5,223.6,1.6,217.9,0L217.9,0z M70.7,0h-1.4C66.6,2.7,63,4.5,58.4,5.6c-3.9,0.9-7.3,1.1-12.7,1l-1.8,0
		c-5,0-8.1-1.1-9.1-4.3c-0.2-0.7-0.3-1.4-0.4-2.2h-1c0,0.9,0.1,1.7,0.4,2.5c1.2,3.7,4.7,5,10.1,5c0.6,0,1.2,0,1.8,0
		c5.4,0.1,8.9-0.1,12.9-1C63.7,5.4,67.8,3.3,70.7,0L70.7,0z M0,207.9v1c6.8-0.2,10.5,3,10.5,10.1c0,10.7-4.6,26.5-10.5,39.2v2.3
		c6.4-13.1,11.5-30.1,11.5-41.5C11.5,211.2,7.3,207.7,0,207.9L0,207.9z M0,215.9c0.9,0.1,1.7,0.5,2.2,1c1.1,1.2,1.3,3.2,0.9,6.8
		L2.9,225c-0.3,2.3-0.4,3-0.4,4c0,2.6-1,7.3-2.5,12.4v3.4c2-6.4,3.5-12.7,3.5-15.9c0-1.3,0.2-2.6,0.4-3.9l0.2-1.3
		c0.4-3.9,0.2-6.1-1.2-7.6c-0.7-0.7-1.6-1.2-2.9-1.3V215.9z M3.9,405.2c1.3-2.8,2.7-6.4,4.6-12c8-24,8-27.5-0.3-31.6
		c-2.6-1.2-5.4-1.6-8.2-1v1c3-0.5,5.5-0.2,7.8,0.9c7.6,3.8,7.6,6.9-0.3,30.4c-1.9,5.6-3.2,9.2-4.6,11.9c-0.8,1.7-1.8,3.3-3,4.7v1.5
		C1.6,409.2,2.9,407.3,3.9,405.2z M33.6,452l-3.8,0c-6.9-0.1-9.2,0-11.8,0.7c-3.2,0.7-5.8,2.9-7,6c-3.8,9-4.5,24.7,0.1,32.9
		c0.9,1.6,1.4,2.8,3.4,7.4c2.9,6.8,4.5,9.6,6.6,11c3.3,2.1,6.1-0.7,8.8-8.6c2.9-8.6,7-22.4,7-22.2c0.7-2,1.6-3.8,2.9-5.5
		c0.5-0.7,1.6-1.6,3.5-3c0.9-0.7,4.9-3.6,5.8-4.3c1.8-1.3,3.4-2.6,5.1-4.1c4.3-3.8,6.1-6.9,4.8-9.7c-1.8-3.6-6.3-3.9-14.5-2.3
		l-2.4,0.5C36.7,451.8,35.3,452,33.6,452L33.6,452z M33.6,454c1.9,0,3.3-0.2,8.7-1.4l2.3-0.5c7.3-1.4,11.2-1.2,12.4,1.3
		c0.8,1.6-0.7,4-4.3,7.3c-1.4,1.2-2.9,2.5-5,4c-0.9,0.7-4.9,3.6-5.8,4.3c-2,1.5-3.2,2.6-3.9,3.4c-1.4,1.8-2.5,3.9-3.2,6
		c-2.2,7.5-4.5,14.9-7,22.2c-2.3,6.8-4.2,8.6-5.8,7.5c-1.6-1.1-3.1-3.8-5.9-10.1c-2-4.7-2.5-5.8-3.5-7.6c-4.2-7.6-3.6-22.6,0.1-31.1
		c2.1-4.8,4.8-5.5,16.9-5.4C31.5,454,32.5,454,33.6,454L33.6,454z M379.3,600h1c-3.5-12.4-3.8-14.2-3.8-19c0-3.8-0.2-7.6-0.4-11.4
		c-0.6-10.2-0.6-13.3,0.2-16.8c1.1-4.3,3.7-6.3,8.7-6.3h26c3.4,0,4.3,1.4,4.9,6.2l0.2,1.3c0.9,5.8,3.2,8.4,9.9,8.4
		c3.4,0,5.1,0.3,5.7,1c0.4,0.5,0.4,1,0.1,3.1c-0.9,5.6,0.6,9.6,7.9,14.8c6.6,4.6,12.2,5.6,17.5,3.5c4-1.6,7-4.3,12.3-10.3l1.1-1.2
		c1.2-1.4,2.5-2.7,3.8-4c2.7-2.7,5.9-4.9,9.3-6.5c1.8-0.9,3.7-1.8,5.6-2.6c6.2-2.8,9.2-4.6,12.1-7.9c2.6-2.9,4.5-4.7,6.5-5.8
		c3-1.7,5.1-2,13.2-2c6.5,0,11.2-4.5,18.8-15.4l2.8-4c1-1.5,1.9-2.7,2.8-3.8c7.5-9.6,18.3-9.9,29.3,1c5.3,5.3,9.9,19.1,13.4,38
		c2.5,13.7,4.2,29.3,4.5,39.7h1c-0.3-10.4-2-26.1-4.5-39.8c-3.5-19.1-8.1-33-13.6-38.5c-11.4-11.4-22.9-11.1-30.7-1
		c-0.8,1.1-1.7,2.3-2.8,3.8l-2.8,4c-7.4,10.7-12,15-18,15c-8.2,0-10.5,0.3-13.7,2.1c-2,1.2-4.1,3-6.7,6c-2.7,3.1-5.6,4.9-11.7,7.6
		c-3.9,1.8-4.1,1.9-5.7,2.6c-3.5,1.7-6.8,4-9.6,6.7c-0.9,0.9-1.8,1.9-2.7,2.9l-1.1,1.2l-1.1,1.2c-5.2,5.8-8.1,8.5-11.9,10
		c-4.9,2-10.2,1.1-16.5-3.4c-7-5-8.4-8.5-7.5-13.8c0.4-2.5,0.4-3.1-0.4-3.9c-0.9-1-2.8-1.4-6.4-1.4c-6.1,0-8-2.2-8.9-7.6
		c-0.1-0.4-0.1-0.5-0.2-1.3c-0.7-5.3-1.9-7.1-5.9-7.1h-26c-5.5,0-8.5,2.4-9.7,7.1c-0.9,3.6-0.9,6.7-0.3,17.1c0.3,5.1,0.4,8,0.4,11.3
		C375.5,585.9,375.8,587.7,379.3,600L379.3,600z M393,600h1c-1.3-6.6-1.6-10.7-1.4-14.8c0-0.7,0.1-1.4,0.2-2.3l0.2-2.6
		c0.3-3.8,0.5-7,0.5-11.3c0-4.5,1.2-6.9,3.4-7.5c2-0.5,5,0.5,8.4,2.9c6.5,4.4,13.7,12.8,16.2,18.8c5,11.9,14.7,16.3,34.5,16.3
		c8.9,0,14.8-2.4,21.3-8.1c1.5-1.3,15.1-15,21-20c7-5.9,11.4-7.4,20.2-8.1c5.5-0.5,8-0.9,11.6-2.4c4.7-2,9.6-5.6,15.3-11.5
		c7.1-7.4,12.2-8.4,16-4.3c3.1,3.4,5.2,10.2,6.6,19.7c0.7,5.1,0.9,7.7,1.6,17.3c0.3,3.7,0.2,5.3-0.9,18h1c1.1-12.7,1.2-14.3,0.9-18
		c-0.6-9.6-0.9-12.2-1.6-17.4c-1.4-9.7-3.5-16.6-6.8-20.2c-4.2-4.6-10-3.5-17.5,4.3c-5.5,5.8-10.3,9.3-14.9,11.3
		c-3.5,1.5-5.9,1.9-11.4,2.4c-8.9,0.7-13.4,2.3-20.6,8.3c-5.9,5-19.5,18.7-21,20c-6.4,5.5-12.1,7.9-20.7,7.9
		c-19.4,0-28.8-4.3-33.5-15.7c-2.6-6.2-9.9-14.7-16.5-19.2c-3.6-2.5-6.8-3.6-9.2-3c-2.8,0.7-4.2,3.5-4.2,8.4c0,4.3-0.2,7.4-0.5,11.2
		l-0.2,2.6c-0.1,0.9-0.1,1.7-0.2,2.4C391.3,589.3,391.6,593.4,393,600L393,600z M506.7,600h1.3c2.8-3.6,8.6-11.3,10.4-13.7
		c5.3-6.8,12.7-12.1,18.8-13.6c6.4-1.6,10.3,1.1,10.3,8.3c0,4,0,5.2-0.7,19h1c0.7-13.8,0.7-15,0.7-19c0-7.8-4.5-11-11.5-9.2
		c-6.4,1.6-13.9,7-19.4,13.9C515.6,588.2,509.2,596.7,506.7,600L506.7,600z M496.8,261c-0.8-0.6-1.5-1.2-2.2-1.8
		c-1.3-1.1-2.6-3.3-4.2-6.9c-0.6-1.3-2.6-6.1-2.9-6.7c-2.9-6.8-5.3-10.8-8.6-13.4c-7.5-5.9-15.3-5.7-27.4-0.1
		c-7.8,3.6-23.2,18.5-34.4,32.3c-2.1,2.7-4.9,5.1-9.3,8.5c-0.6,0.4-3.2,2.5-3.9,3c-1.5,1.1-2.6,2.1-3.7,3c-4.3,3.7-6.4,6.8-6.3,10.3
		c0.3,7.7,18.5,23,34.5,31.9c1.8,1,3.5,2,5.2,3.1c0,0,13.6,9.2,17.2,11c8.9,4.4,16.9,3.8,28-3.3c2.5-1.6,5.1-3,7.8-4.2
		c5.1-2.3,6.9-2.8,18.8-6.3c8-2.3,12.2-3.9,16.1-6.6c4.9-3.3,7.9-7.9,9.4-14.4c2.7-12-1.1-18.3-12.3-25.3c-1.9-1.2-9.3-5.5-10.3-6.1
		C503.8,266.1,500.3,263.8,496.8,261L496.8,261z M493.3,260.8c0.7,0.6,1.5,1.2,2.3,1.8c3.5,2.8,7.1,5.2,11.6,7.9
		c1.1,0.7,8.4,4.9,10.3,6.1c10.6,6.6,13.9,12.2,11.5,23.2c-1.3,6-4.1,10.2-8.6,13.2c-3.6,2.5-7.7,4.1-15.5,6.3
		c-12.1,3.5-13.8,4-19.1,6.4c-2.8,1.2-5.5,2.7-8.1,4.3c-10.5,6.7-17.8,7.3-26,3.2c-3.4-1.7-16.9-10.8-17-10.9
		c-1.8-1.1-3.5-2.2-5.3-3.1c-15.3-8.4-33.3-23.5-33.5-30.1c-0.1-2.7,1.7-5.4,5.6-8.7c1.2-1,2.4-2,3.6-2.9l3.9-3
		c4.6-3.5,7.4-6,9.7-8.8c10.9-13.6,26.2-28.3,33.6-31.7c11.4-5.3,18.5-5.5,25.3-0.1c2.9,2.3,5.2,6.1,8,12.6c0.3,0.6,2.3,5.5,2.9,6.8
		C490.3,257,491.7,259.4,493.3,260.8L493.3,260.8z M87.7,241.6c-1.7,1.2-3.5,2.3-5.4,3.4c-0.8,0.4-3.9,2.2-4.7,2.7
		c-8.5,5-12,10.2-15.1,25.3c-5.3,25.3-8.4,33.4-17.9,44.8c-2.6,3.1-5.6,6.1-10.7,10.8c-8.4,7.7-9.3,8.5-11.9,11.5
		c-3.6,4.2-5.5,7.7-5.5,11.1c0,3.4,0.7,5.3,3.9,12.5c4.2,9.4,5.1,14.9,2.2,22.3c-4.2,10.6-6.4,18-6.3,24.3
		c0.1,8.6,4.7,13.4,14.8,13.4c17.9,0,44-10,65.2-22.1c17.4-9.9,56.3-41.4,65.2-54.1c14-20.3,28.4-34.4,52.8-47.8
		c13.3-7.3,21.4-15.1,25.6-23.5c3-6,3.7-10.6,3.7-19c0-11.2-0.7-18.9-3.8-27.8c-3.2-9.4-8.5-17.1-16.4-22.7
		c-21.4-15-30.3-16.7-49.5-8.1c0.7-0.3-16.9,7.6-21.2,9.5c-9.5,4.4-18.8,9.2-27.9,14.5c-5.7,3.3-11.7,6.3-17.7,9l-4.4,1.9
		c-1,0.5-1.9,0.8-2.8,1.2C95.6,236.6,92,238.6,87.7,241.6L87.7,241.6z M100.3,235.6c0.8-0.4,1.7-0.8,2.8-1.2l4.4-1.9
		c6.1-2.6,12.1-5.6,17.8-9c7.5-4.4,15.1-8.4,22.9-12.2c1.6-0.8,3.2-1.5,4.9-2.3c4.2-1.9,21.9-9.8,21.2-9.5
		c18.8-8.5,27.4-6.9,48.5,7.9c7.7,5.4,12.9,12.9,16.1,22.2c3,8.7,3.7,16.3,3.7,27.4c0,8.2-0.7,12.7-3.6,18.5
		c-4.1,8.2-12.1,15.8-25.2,23c-24.6,13.6-39.1,27.7-53.2,48.2c-8.7,12.6-47.6,44-64.8,53.9c-21.1,12-47.1,21.9-64.8,21.9
		c-9.5,0-13.7-4.3-13.8-12.4c-0.1-6.1,2-13.5,6.2-23.9c3.1-7.7,2.1-13.5-2.2-23.1c-3.1-7-3.8-8.9-3.8-12.1c0-3.1,1.8-6.4,5.3-10.4
		c2.6-2.9,3.5-3.8,11.8-11.4c5.1-4.7,8.1-7.6,10.8-10.8c9.6-11.5,12.8-19.8,18.1-45.2c3.1-14.8,6.4-19.8,14.7-24.6l4.7-2.7
		c1.9-1.1,3.7-2.2,5.4-3.4C92.1,239.8,96.1,237.5,100.3,235.6z M80.7,254.6c-11,8.9-11,9-12.3,11.4c-0.6,1.3-1,2.5-1.6,5.5
		c-1,4.9-1.4,6.6-2.4,10.4c-0.9,3.5-1.7,6.9-2.4,10.6c-0.3,1.4-0.5,2.9-0.9,4.7c-0.3,1.5-0.5,2.9-0.8,4.4c-2,10.5-3.7,15.4-7.8,20.1
		c-1.6,1.7-3.4,3.3-5.2,4.8c-0.4,0.3-5.5,4.5-7.1,5.8c-10.3,8.6-15.1,15.1-14.2,21.7c0.5,3.4,2.6,6.5,6.6,9.5c2.7,2,5,4.3,7,6.9
		c4.5,6,5.3,11.1,5,20.5c-0.3,6.5,0,8.6,2,10.5c6.6,6.6,32.1,1.7,43.7-9c2.7-2.5,6.6-5.4,13.1-9.8c1.8-1.2,8.5-5.8,8.6-5.9
		c3.1-2.1,6.2-4.2,9.2-6.4c14.8-10.6,24.6-19.3,30.2-28c4.9-7.6,15.3-26.7,16-27.8c3.2-5.1,6.1-8.1,9.8-10
		c6.9-3.4,16.8-9.7,25.2-16.4c11.6-9.3,19.9-18.8,23-27.9c3.2-9.2-2-21-12.7-32.5c-9-9.6-20.4-17.2-25.7-17.2
		c-10.9,0-25.9,5.6-36.3,14.1c-3.6,3-7.6,4.6-13.1,5.9c-1.4,0.3-2.3,0.5-5.1,1c-8.4,1.6-12.1,2.8-15.9,6.1
		c-3.2,2.8-6.2,4.1-12.3,5.7C93,246.5,88.4,248.4,80.7,254.6L80.7,254.6z M81.3,255.4c7.6-6.1,12-8,23.3-11.1
		c6.3-1.7,9.4-3,12.7-5.9c3.6-3.2,7.2-4.3,15.4-5.9c2.8-0.5,3.7-0.7,5.1-1c5.6-1.3,9.7-3,13.5-6.1c10.3-8.4,25-13.9,35.7-13.9
		c5,0,16.2,7.4,25,16.8c10.5,11.2,15.6,22.7,12.5,31.5c-3.1,8.9-11.2,18.2-22.7,27.4c-8.4,6.7-18.2,12.9-25,16.3
		c-3.9,2-6.9,5.1-10.2,10.4c-0.7,1.1-11.1,20.3-16,27.8c-5.5,8.5-15.2,17.2-30,27.7c-2.7,2-5.6,3.9-9.2,6.4l-8.6,5.9
		c-6.5,4.5-10.4,7.4-13.2,9.9c-11.3,10.3-36.2,15.1-42.3,9c-1.7-1.7-1.9-3.6-1.7-9.8c0.4-9.6-0.5-14.9-5.2-21.1
		c-1.8-2.5-4.2-4.9-7.2-7.1c-3.7-2.8-5.7-5.7-6.2-8.8c-0.9-6.1,3.8-12.4,13.8-20.8c1.6-1.3,6.7-5.4,7.1-5.8c1.9-1.5,3.7-3.1,5.3-4.9
		c4.3-4.8,6.1-9.9,8-20.5l0.4-2.1c0.4-2.3,0.8-4.6,1.3-7c0.7-3.8,1.5-7.1,2.4-10.6c1-3.8,1.4-5.5,2.4-10.4c0.6-2.9,0.9-4.1,1.5-5.2
		C70.4,264.2,70.6,264.1,81.3,255.4L81.3,255.4z M212,251.8c0-7.1-4.5-16.5-11-23.7c-7.1-7.8-15.4-11.6-22.3-9.1
		c-13.9,4.9-16,6-25.2,11.9c-2.3,1.5-9.4,6.7-11,7.7c-3.5,2.2-6.5,3.2-10.5,3.2c-8.8,0-11.4,1.6-15.9,9.5c-1.4,2.4-2.4,2.5-7.4,1.5
		c-6-1.2-10-0.9-15.2,2.1C77.2,264.5,66,279.4,66,297.8c0,8.7-3.2,16.5-9.8,27.2c-0.8,1.4-3.8,6-3.7,5.8c-1.4,2.2-2.4,3.8-3.2,5.4
		c-2.2,3.9-3.3,6.9-3.3,9.7c0,3.1,1.6,5.3,4.5,6.8c2.1,1.1,4.2,1.7,9,2.6l0.6,0.1c7.6,1.5,10.7,2.8,12,5.8
		c2.1,4.8,11.3,5.2,24.6,2.3c11.5-2.5,24.6-7.3,32.8-11.9C145,343,164,317.8,164,306.9c0-4.9,2.9-8,9-10.7c1.1-0.5,4.8-2.1,5.5-2.4
		c0.8-0.4,1.4-0.7,2-1c0.8-0.5,1.7-0.9,3-1.5c7.9-3.5,11.3-5.8,17.3-13.8c0.9-1.3,7.5-9.5,8.6-11.3C211.4,262.8,212,259.4,212,251.8
		L212,251.8z M210,251.8c0,7.2-0.5,10.3-2.3,13.3c-1,1.7-7.4,9.8-8.5,11.1c-5.7,7.6-8.8,9.8-16.5,13.1c-1.4,0.6-2.3,1.1-3.3,1.6
		c-0.5,0.3-1.1,0.6-1.8,0.9c-0.7,0.3-4.4,1.9-5.5,2.4c-6.7,3.1-10.2,6.6-10.2,12.5c0,10.1-18.5,34.7-33.5,43.1
		c-18.6,10.5-51.4,17.6-54.6,10.5c-1.7-3.8-5.1-5.3-13.4-7l-0.6-0.1c-9-1.8-11.9-3.3-11.9-7.5c0-2.3,1-5.1,3-8.7
		c0.8-1.5,1.8-3.1,3.2-5.3l3.7-5.8c6.9-11,10.2-19.1,10.2-28.3c0-17.6,10.8-32,26.5-41.1c4.7-2.8,8.3-3,13.8-1.9
		c3.3,0.7,3.9,0.8,5.2,0.6c1.8-0.2,3.3-1.2,4.3-3.1c4.2-7.3,6-8.5,14.1-8.5c4.3,0,7.7-1.1,11.5-3.5c1.6-1,8.8-6.2,11-7.7
		c9.1-5.9,11.1-6.9,24.8-11.8c6-2.2,13.5,1.3,20.2,8.6C205.8,236.4,210,245.4,210,251.8L210,251.8z M172.8,229.4
		c-3.2,2-6.5,3.7-10,5.1c-1.8,0.8-3.5,1.6-5,2.4c-2.5,1.3-4.8,3-6.8,5c-1.1,1.1-4,4.4-3.9,4.2c-2.3,2.4-4.2,3.4-8.2,3.4
		c-6,0-9,1.5-12.3,5.5c-0.3,0.3-2,2.5-2.6,3.2c-1,1.2-2.2,2.4-3.4,3.4c-0.6,0.5-1.2,1-1.8,1.3c-2.3,1.4-4.3,1.8-9,2
		c-7.5,0.4-11.4,1.1-18,3.5c-5.6,2.1-9.3,5.7-11.7,11.1c-2,4.4-3.1,9.2-4.5,18.6c-0.4,3-0.9,5.9-1.3,8.9c-0.6,3.5-1.1,6.6-1.8,9.7
		c-1.1,5.1-4.5,18.5-4.8,20.6c-0.6,4.6,0.5,7,4.5,9.3c1.8,1,3.7,1.9,5.6,2.6c5.6,2.2,10.5,3.1,15.4,2.9c6.8-0.4,11.5-2,28-8.9
		c16.6-7,28.4-25.4,36.3-50.3c1.4-4.5,3.9-7.4,7.5-9.4c2.8-1.6,5.6-2.4,11.6-3.6c1.9-0.4,2.3-0.5,3.1-0.7
		c9.4-2.1,14.7-4.9,18.7-11.1c10.3-15.8,5.7-30.7-9.2-38.7c-6-3.2-8.5-3.9-11-3.1c-0.7,0.2-1.5,0.6-2.4,1.2
		C175.2,227.9,173,229.4,172.8,229.4L172.8,229.4z M158.3,237.8c1.5-0.8,3.1-1.6,4.9-2.3c3.5-1.4,6.9-3.2,10.2-5.2
		c0.2-0.1,2.4-1.5,2.9-1.8c0.9-0.5,1.6-0.9,2.2-1.1c2.2-0.7,4.5-0.1,10.3,3.1c14.4,7.7,18.7,22,8.8,37.3c-3.9,6-9,8.6-18.1,10.7
		c-0.8,0.2-1.2,0.3-3.1,0.7c-6.1,1.3-8.9,2.1-11.9,3.8c-3.9,2.1-6.5,5.3-8,10c-7.8,24.7-19.5,42.9-35.7,49.7
		c-16.3,6.9-21,8.5-27.7,8.8c-4.8,0.3-9.5-0.6-15-2.8c-2.4-1-4.2-1.8-5.5-2.5c-3.7-2.1-4.6-4.1-4-8.3c0.3-2.1,3.8-15.4,4.8-20.6
		c0.6-3.1,1.2-6.2,1.8-9.7l0.7-4.6l0.7-4.3c1.4-9.3,2.5-14.1,4.4-18.4c2.3-5.2,5.8-8.6,11.2-10.6c6.5-2.4,10.3-3,17.7-3.5
		c4.9-0.3,7-0.7,9.5-2.2c0.7-0.4,1.3-0.9,2-1.4c1.2-1.1,2.4-2.3,3.5-3.5c0.6-0.7,2.4-2.9,2.6-3.2c3.2-3.8,5.8-5.2,11.6-5.2
		c4.2,0,6.4-1,8.9-3.7c1.2-1.4,2.5-2.8,3.8-4.2C153.7,240.7,155.9,239.1,158.3,237.8L158.3,237.8z M115.9,270.5
		c-3.3,0.6-5.5,0.8-10.8,1c-6.8,0.3-9.5,0.8-12.3,2.6c-3.5,2.3-5.8,6.5-7.3,13.7c-0.8,3.8-1.6,7.3-3.1,14.1l-0.1,0.5
		c-2.9,12.3-4,17.3-4.7,23c-1,7.6-0.8,12.8,1.1,15.7c5.2,8.4,26.6,6.3,40.7-3.9c12.6-9,18.4-15.6,23.2-25.2
		c7.1-14.1,11-29.6,5.9-35.5C142.3,269.5,132.1,267.6,115.9,270.5L115.9,270.5z M147.6,277.3c4.7,5.5,0.8,20.7-6.1,34.5
		c-4.7,9.4-10.4,15.9-22.8,24.8c-13.8,9.8-34.5,11.9-39.3,4.1c-1.7-2.7-1.9-7.7-0.9-15.1c0.8-5.6,1.8-10.7,4.7-22.9l0.1-0.5
		c1.6-6.8,2.4-10.3,3.2-14.2c1.4-7,3.6-11,6.8-13.1c2.6-1.7,5.2-2.1,11.8-2.5c5.4-0.3,7.6-0.5,10.9-1
		C131.9,268.7,141.8,270.5,147.6,277.3z M124.6,276.4l-3.9-0.1c-7.9-0.2-13.1,0.1-17.5,1.3c-5.6,1.5-9.2,4.5-10.7,9.3l-0.4,1.2
		c-1.1,3.4-2.1,6.7-3.1,10.1c-0.9,3.1-1.7,6-2.4,8.8c-3.5,14.4-4,23.6,0,26.5c6.5,4.7,19.6,3.7,26.6-1c8.8-5.9,24.6-22.8,27.2-31.3
		c2.3-7.8,3.2-11.9,2.8-15.9c-0.6-5.6-4.1-8.7-11.3-8.7C130,276.5,128.5,276.5,124.6,276.4z M132,277.5c6.6,0,9.7,2.7,10.3,7.8
		c0.4,3.9-0.4,7.9-2.7,15.6c-2.5,8.2-18.1,25-26.8,30.7c-6.7,4.5-19.3,5.4-25.4,1c-3.5-2.5-3-11.5,0.4-25.4c0.7-2.7,1.5-5.6,2.4-8.7
		c0.6-1.9,1.1-3.9,1.8-6.1c0.5-1.7,1.1-3.5,1.6-5.2c1.4-4.4,4.7-7.2,10-8.6c4.3-1.2,9.4-1.5,17.2-1.3l3.9,0.1
		C128.5,277.5,130,277.5,132,277.5L132,277.5z M105.7,287.5c-4.4,2.8-7.4,7.2-8.2,13.5c-2,14.8,1.8,19.8,11.7,16.5
		c12.8-4.3,22.3-11.9,22.3-21.5c0-5.1-3.3-8.3-8.7-10.1c-2.8-0.9-5.7-1.3-8.6-1.4C111.2,284.8,108.3,285.9,105.7,287.5z
		 M114.3,285.5c2.8,0,5.5,0.5,8.2,1.4c5,1.6,8,4.6,8,9.1c0,9-9.2,16.4-21.7,20.5c-9,3-12.2-1.4-10.3-15.5c0.8-6,3.6-10.1,7.8-12.8
		c2.2-1.4,4.7-2.3,7.3-2.7C113.9,285.5,114.1,285.5,114.3,285.5z M194.5,262.1c3.7-13.3,1.9-22.9-7.3-26.6c-5.2-2.1-9.3-1.7-14,0.7
		c-1.3,0.7-2.6,1.5-3.9,2.3l-2,1.3c-1.5,1-3,1.9-4.5,2.7c-8.8,4.9-5.2,17.2,5,22.9C179.6,272,191.8,271.9,194.5,262.1L194.5,262.1z
		 M173.7,237.2c4.5-2.3,8.3-2.6,13.2-0.7c8.6,3.4,10.3,12.6,6.7,25.4c-2.5,8.9-14,9-25.3,2.7c-9.6-5.3-12.9-16.7-5-21.1
		c0.8-0.4,1.6-0.9,2.4-1.4c0.7-0.4,1.3-0.8,2.2-1.4l2-1.3C171.1,238.6,172.3,237.8,173.7,237.2L173.7,237.2z M191.5,249.3
		c0-11.8-14.1-13.7-20.9-4.6c-4.5,6-4.4,8.5-0.3,10.9c0.5,0.3,1,0.5,1.6,0.9l1.9,0.9c3.5,1.8,7.8,2.6,11.1,1.8
		C189.1,258.3,191.5,255,191.5,249.3L191.5,249.3z M190.5,249.3c0,5.3-2.1,8.1-5.9,9c-3.1,0.7-7.1-0.1-10.4-1.7l-1.9-0.9
		c-0.7-0.3-1.1-0.6-1.6-0.9c-3.5-2-3.5-3.9,0.6-9.5c2.8-3.7,7.6-5.7,11.8-5.2C187.6,240.7,190.5,244,190.5,249.3L190.5,249.3z
		 M387,530.3c0,6.3,3.3,8.7,9.3,7.9c4.2-0.6,5.6-1.1,19.4-6.7l0.7-0.3c3.3-1.3,4.8-1.3,5.2-0.4c0.4,0.9,0.4,2.1-0.3,5.8l-0.2,1.6
		c-0.9,6,0.1,9.3,4.7,10.1c4.1,0.8,6.8-0.3,9-2.8c0.3-0.3,1.4-1.7,1.6-1.9c0.8-0.8,1.4-0.6,3.8,2.4c2.5,3.2,2.7,5.8,1.8,11.6
		c-0.6,3.7-0.7,5.3-0.3,7.3c0.5,2.8,1.9,5.1,4.6,7.3c4.6,3.7,10.9,1,20.2-6.5c1.5-1.2,3-2.5,4.5-3.8l4.9-4.3
		c1.8-1.6,3.2-2.7,4.5-3.7c3-2.3,5.1-3.5,6.5-3.5c3.8,0,7-2.1,11.8-6.8c5.8-5.5,6.6-6.2,8.2-6.2c0.9,0,1.8,0.1,2.7,0.4l1,0.2
		c3.8,0.8,6.8-0.7,13-6.9c2.3-2.3,4.2-4.8,7.3-9.4l1.5-2.3c4-6,6.6-9.1,9.8-11.8c4.1-3.5,9.3-5.3,14.6-5.2c18.9,0,21.2-9.4,7.6-20.8
		c-5.3-4.4-7.1-8.1-6-10.6c1-2.2,4.5-3.7,9.3-3.7c10.4,0,19-9.3,19-20c0-10.5-4.7-13.5-11.6-7.8c-3.3,2.8-9.4,3.1-25.3,2.2
		c-4-0.3-8-0.4-12.1-0.5c-8.3,0-12.7-1.9-17.8-6.9c-1-1-5.2-5.5-6.5-6.8c-2.3-2.3-4.7-3.5-7.2-3.6c-2.4-0.1-3.5,0.2-9,2.2
		c-4,1.5-6.5,2.1-9.6,2.1c-5,0-8,1.8-11.5,5.9c-0.7,0.8-2.9,3.6-3.2,4c-1.2,1.5-2.5,2.9-3.9,4.3c-1.5,1.5-3.2,2.8-5,4
		c-6.7,4.4-9.5,8.5-12.7,16.5l-0.6,1.4l-0.3,0.7c-0.5,1.3-1,2.6-1.5,3.8c-1,2.4-2,4.6-3.2,6.8c-2.9,5.3-7.2,8.2-16.6,12l-3.9,1.6
		c-1.6,0.7-2.9,1.2-4.1,1.7c-3.2,1.4-5.9,2.7-8.5,4.2c-2.7,1.5-5.2,3.3-7.6,5.2C389.4,513.6,387,517.5,387,530.3L387,530.3z
		 M389,530.3c0-12.1,2.1-15.5,17.7-28.2c2.3-1.9,4.8-3.5,7.4-5c2.7-1.5,5.5-2.9,8.3-4.1c1.2-0.5,2.4-1,4-1.7l3.9-1.6
		c9.8-4,14.5-7.1,17.6-13c1.2-2.3,2.3-4.6,3.3-7c0.5-1.3,1-2.6,1.6-3.9l0.3-0.7l0.6-1.4c3.1-7.7,5.7-11.4,12-15.6
		c1.9-1.2,3.6-2.7,5.2-4.2c1.4-1.4,2.8-2.9,4-4.5c0.3-0.4,2.5-3.2,3.2-4c3.1-3.7,5.7-5.2,10-5.2c3.4,0,6.1-0.7,10.3-2.2
		c5.1-1.9,6.1-2.2,8.1-2.1c2,0.1,3.9,1,5.9,3c1.3,1.3,5.5,5.8,6.5,6.8c5.4,5.4,10.3,7.5,19.2,7.5c3,0,5.9,0.1,11,0.4l1,0.1
		c16.7,0.9,22.7,0.6,26.7-2.7c5.5-4.6,8.4-2.7,8.4,6.2c0,9.7-7.8,18-17,18c-5.5,0-9.7,1.7-11.2,4.8c-1.6,3.5,0.6,8,6.5,12.9
		c12.3,10.2,10.5,17.2-6.4,17.2c-5.8-0.1-11.5,1.9-15.9,5.7c-3.5,2.9-6.1,6.1-10.2,12.2l-1.5,2.3c-3,4.5-4.9,6.9-7.1,9.1
		c-5.8,5.8-8.3,6.9-11.2,6.3c-0.3,0-0.3-0.1-1-0.2c-1.3-0.3-2.1-0.4-3.1-0.4c-1.4,0-2.9,0.8-4.7,2.3c-0.7,0.6-1.4,1.2-2.4,2.1
		l-2.5,2.4c-4.5,4.3-7.4,6.2-10.4,6.2c-1.9,0-4.3,1.3-7.7,3.9c-1.3,1-2.7,2.2-4.6,3.8l-4.9,4.3c-1.7,1.5-3.1,2.7-4.5,3.8
		c-8.6,7-14.2,9.3-17.7,6.5c-4.1-3.3-4.6-6-3.6-12.7c1-6.3,0.7-9.4-2.2-13.1c-3-3.8-4.9-4.5-6.8-2.5c-0.3,0.3-1.5,1.8-1.7,2
		c-1.8,2-3.7,2.8-7.1,2.2c-3.1-0.6-3.8-2.8-3.1-7.8l0.2-1.5c0.7-4.2,0.8-5.6,0.1-7c-1.1-2.1-3.6-2.2-7.8-0.6l-0.8,0.3
		c-13.5,5.5-15,6-19,6.5C391.1,536.9,389,535.3,389,530.3L389,530.3z M522.2,450.5c-2.5-1.2-4.7-2.8-6.6-4.8
		c-0.9-0.8-1.6-1.7-2.5-2.8c-0.3-0.5-1.7-2.2-2-2.7c-2.6-3.4-4.9-4.8-9.1-4.8c-5.4,0-9.8,2.3-17.7,8l-1.4,1
		c-4.5,3.3-6.6,4.7-9.2,6.1c-4.3,2.2-7.5,5.7-11,11.3c-1.4,2.2-9.2,16.1-12.1,20.8c-3.6,5.8-6.8,7.6-14,9.3
		c-6.2,1.5-8.4,2.1-12.2,4.1c-5.2,2.7-10.3,7-15.8,13.5c-5.8,6.9-7.1,10.8-4.2,12.2c2,1,4.8,0.7,12.7-0.7l0.7-0.1
		c5-0.9,7.7-1.3,9.9-1.1c2.7,0.2,3.9,1.1,3.8,3c-0.5,6.1,0.3,9.3,2.6,10.7c2,1.2,4.8,1,11-0.2c1.8-0.4,3,0.6,4,2.9
		c0.8,1.8,1.2,3.8,2.1,8.9c1,5.8,1.6,8.3,2.9,10.3c1.8,2.8,4.5,3.2,8.2,0.8c4.1-2.6,14.6-8.8,14.8-8.8c3.2-1.9,6.1-4.1,8.6-6.7
		c1.6-1.6,3.1-3.4,4.7-5.6c4.1-5.6,7.3-6.8,15-7.1c4.8-0.2,7-0.5,9.8-1.7c1-0.5,2-1.2,3.1-2.2c1.7-1.7,3.3-3.5,4.7-5.5
		c1-1.3,4.4-6.2,4.9-6.9c7.3-10.1,12.9-14.7,20-14.7c7.6,0,11.9-1.8,12.6-5c0.6-2.8-1.4-6.3-5.3-9.6c-6.5-5.6-7.8-8.3-7.8-15.6
		c0-2.3,1.5-4.2,5-7.1c4-3.3,4.4-3.7,5-5.1c0.7-1.5,0.3-2.9-1.3-4.2c-1.5-1.2-3.5-1.6-6.3-1.4c-2,0.2-3,0.4-8.3,1.5
		c-3.9,0.9-6.3,1.3-8.8,1.5C528.8,452.6,525.3,452.1,522.2,450.5L522.2,450.5z M521.8,451.4c3.2,1.6,6.9,2.1,11.2,1.8
		c2.6-0.2,5-0.6,8.9-1.5c9-2,11.5-2.2,13.8-0.4c1.2,1,1.5,2,1,3c-0.6,1.2-1,1.6-4.8,4.7c-3.8,3.1-5.4,5.2-5.4,7.9
		c0,7.6,1.4,10.6,8.2,16.4c3.6,3.1,5.5,6.3,5,8.6c-0.6,2.6-4.4,4.2-11.6,4.2c-7.6,0-13.3,4.8-20.8,15.1c-0.5,0.7-4,5.6-4.9,6.9
		c-1.4,1.9-2.9,3.7-4.6,5.4c-1,0.9-1.9,1.6-2.8,2c-2.7,1.2-4.8,1.5-9.5,1.7c-7.9,0.3-11.4,1.5-15.7,7.5c-1.4,1.9-2.9,3.8-4.6,5.5
		c-2.5,2.5-5.4,4.7-8.5,6.5c-0.1,0.1-10.7,6.2-14.8,8.8c-3.3,2.1-5.4,1.8-6.8-0.5c-1.2-1.9-1.8-4.3-2.7-10l-0.1-0.4
		c-0.8-4.8-1.2-6.8-2.1-8.8c-1.1-2.7-2.8-3.9-5.1-3.5c-5.9,1.2-8.5,1.3-10.3,0.3c-1.9-1.1-2.6-4-2.1-9.8c0.2-2.6-1.5-3.9-4.7-4.1
		c-2.4-0.2-5.1,0.2-10.2,1.1l-0.7,0.1c-7.6,1.4-10.4,1.7-12.1,0.8c-2-1-0.9-4.2,4.5-10.7c5.4-6.4,10.4-10.6,15.5-13.3
		c3.7-1.9,5.8-2.6,11.9-4c7.5-1.8,10.9-3.7,14.7-9.8c3-4.8,10.8-18.6,12.1-20.8c3.5-5.5,6.6-8.9,10.7-11c2.7-1.4,4.8-2.9,9.3-6.1
		l1.4-1c7.7-5.6,12-7.8,17.1-7.8c3.9,0,5.9,1.2,8.3,4.4c0.3,0.4,1.7,2.2,2,2.7c0.9,1.1,1.6,2,2.5,2.9
		C516.8,448.4,519,450,521.8,451.4L521.8,451.4z M493.8,447.5c-12.9,6.4-17.5,10.9-23.2,21.2c-0.9,1.6-1.7,3.2-2.6,5l-2.1,4.3
		c-1.1,2.1-1.9,3.6-2.9,5.1c-1.5,2.3-3.3,4.5-5.3,6.5c-1.9,1.9-4.5,3.4-11.1,6.7c-6.7,3.4-9.4,4.9-11.4,6.9
		c-2.8,2.8-2.5,5.6,1.5,8.2c4.4,3,5.6,5.1,6.5,9.7c0.9,4.2,2.6,5.4,9.7,5.4c4.9,0,6.6,2.1,7.2,6.9c0.1,0.6,0.1,1.2,0.2,1.8
		c0.3,3.4,0.6,4.7,1.9,5.5c1.6,1,4.4,0.3,9-2.2c3.1-1.7,6.1-3.7,9-5.9c3.6-2.8,13.4-11.7,15.2-13.1c3.6-2.7,6.8-4,10.6-4
		c7.2,0,12.4-3.8,19.6-12.4c0.6-0.6,2.9-3.4,3.5-4.1c1.3-1.5,2.3-2.7,3.3-3.7c1.3-1.3,2.8-2.1,4.6-2.7c1-0.3,1.5-0.4,3.8-0.9
		c3.3-0.6,4.6-1.2,5.4-2.8c0.9-1.9,0.4-5.1-1.7-10.2c-1.1-2.6-1.9-5-2.7-7.6c-0.3-1-1.4-4.8-1.7-5.6c-2.1-6.7-4.7-8.1-16.1-8.1
		c-6.2,0-10.1-1.8-14.3-5.7c-0.4-0.4-2.5-2.4-3-2.9C502.7,445.3,499.4,444.7,493.8,447.5L493.8,447.5z M471.4,469.2
		c5.6-10.1,10.1-14.5,22.8-20.8c5.3-2.6,8.1-2.1,11.8,1.2c0.6,0.5,2.6,2.5,3,2.9c4.4,4.1,8.5,6,15,6c11,0,13.2,1.2,15.1,7.4
		c0.3,0.8,1.3,4.6,1.7,5.6c0.8,2.6,1.7,5.2,2.7,7.7c2,4.9,2.5,7.8,1.7,9.4c-0.6,1.2-1.7,1.7-4.7,2.2c-2.4,0.4-2.9,0.6-4,0.9
		c-1.9,0.5-3.6,1.5-5,2.9c-1.2,1.2-2.3,2.4-3.4,3.7l-3.5,4.1c-7,8.3-12.1,12-18.8,12c-4,0-7.4,1.4-11.2,4.2
		c-1.9,1.4-11.7,10.4-15.2,13.1c-2.8,2.1-5.7,4.1-8.8,5.8c-4.3,2.4-6.8,3-8,2.3c-0.9-0.5-1.2-1.7-1.5-4.7c-0.1-1-0.1-1.3-0.2-1.8
		c-0.6-5.2-2.6-7.8-8.1-7.8c-6.7,0-8-0.9-8.8-4.6c-1-4.8-2.3-7.2-7-10.3c-3.5-2.3-3.7-4.3-1.4-6.7c1.9-1.9,4.5-3.4,11.1-6.7
		c6.7-3.4,9.4-4.9,11.4-6.9c2-2,3.9-4.2,5.4-6.6c1.1-1.7,2.1-3.4,2.9-5.2l2.1-4.3C469.7,472.4,470.5,470.8,471.4,469.2L471.4,469.2z
		 M527.3,481.2c2.8-6.2-3.8-15.7-12.9-15.7c-5.8,0-10,2.7-13.6,7.5c-0.7,0.9-1.3,1.8-1.9,2.7l-1.5,2.3c-1.8,2.7-3.6,7.1-3.9,10.6
		c-0.5,4.9,1.8,7.9,7.1,7.9C510.5,496.4,524.3,487.6,527.3,481.2L527.3,481.2z M526.4,480.7c-2.8,6.1-16.3,14.7-25.8,14.7
		c-4.7,0-6.5-2.4-6.1-6.8c0.3-3.3,2-7.6,3.8-10.1c0.3-0.5,1.5-2.3,1.5-2.3c0.7-1,1.3-1.8,1.9-2.6c3.5-4.6,7.4-7.1,12.8-7.1
		C522.7,466.5,528.9,475.3,526.4,480.7L526.4,480.7z M456.7,501.5c-4.1-0.3-7.2,1.8-7.2,6.5c0,5.7,7.7,6.5,12.9,1.4
		c2.5-2.4,2.4-4.6,0.3-6C461.2,502.3,458.8,501.7,456.7,501.5L456.7,501.5z M456.6,502.5c1.9,0.2,4.1,0.8,5.4,1.6
		c1.6,1.1,1.6,2.5-0.4,4.5c-4.6,4.6-11.1,3.9-11.1-0.6C450.5,504,453.1,502.2,456.6,502.5L456.6,502.5z M486.2,276.6
		c-4.7-2.4-9-5.7-14.2-10.6c-1-1-6.5-6.3-8-7.7c-2.9-2.7-5.2-4.4-7.4-5.5c-5.2-2.6-9.9-1.5-15,3.9c-1.5,1.6-3.1,3.2-4.7,4.7
		c-2.9,2.7-5.9,5.2-8.9,7.7c-13.9,11.7-14.8,12.4-18.1,16.3c-4.6,5.5-5,9.5-0.2,12.1c3,1.7,5.9,3.6,8.6,5.7
		c1.2,0.9,8.5,6.2,10.7,7.9c4.9,3.5,9,6.3,12.9,8.5c10.3,6,18.5,8.2,25.1,5.9c1.5-0.5,16.3-5.5,21.1-7.2c9.8-3.5,17-6.7,22-9.8
		c6.2-4,8.6-7.9,6.2-11.6c-1.1-1.8-2.4-3.6-3.8-5.2c-2-2.3-4.4-4.2-7-5.6C503.5,284.8,490.9,278.9,486.2,276.6L486.2,276.6z
		 M485.8,277.4c4.7,2.4,17.3,8.2,19.4,9.4c2.6,1.4,4.9,3.2,6.8,5.4c1.3,1.6,2.6,3.3,3.7,5.1c2,3.2-0.1,6.6-5.9,10.3
		c-4.9,3.1-12,6.2-21.8,9.7c-4.8,1.7-19.6,6.7-21.1,7.2c-6.2,2.2-14.2,0-24.3-5.8c-4.4-2.6-8.7-5.4-12.9-8.5
		c-2.2-1.6-9.5-7-10.7-7.9c-3.8-2.8-6.5-4.6-8.7-5.8c-4.1-2.2-3.8-5.5,0.5-10.6c3.2-3.8,4.1-4.6,18-16.2c3.8-3.1,6.4-5.5,8.9-7.8
		c1.6-1.5,3.2-3.1,4.8-4.7c4.8-5.1,9-6.1,13.8-3.7c2.1,1.1,4.4,2.8,7.2,5.4c1.5,1.4,6.9,6.7,8,7.7
		C476.6,271.6,480.9,275,485.8,277.4L485.8,277.4z M446.9,285.5c-5.3,0.6-9.7,2.3-12.2,4.7c-2.9,2.9-3.1,6.6-0.2,11.1
		c3.8,5.8,7.5,9.8,12.1,12.3c5.9,3.3,13,3.7,21.4,0.9c9.8-3.3,15.8-6.2,17.8-9.2c2.5-3.5-0.4-6.8-8.8-9.8c-4.8-1.7-8.4-3.3-13.2-5.6
		c-5.9-2.8-6.5-3.1-8.6-3.8C452.6,285.4,450,285.1,446.9,285.5L446.9,285.5z M447,286.5c2.7-0.4,5.4-0.1,8,0.7
		c2.1,0.6,2.7,0.9,8.5,3.7c4.8,2.3,8.4,3.9,13.3,5.6c7.9,2.8,10.3,5.5,8.4,8.2c-1.9,2.7-7.8,5.6-17.3,8.8
		c-8.2,2.7-14.9,2.3-20.6-0.8c-4.5-2.5-8.1-6.3-11.8-12c-2.7-4-2.5-7.3,0-9.8C437.7,288.6,441.9,287.1,447,286.5L447,286.5z
		 M202.5,500.4c0-5.8-1.3-7.2-5.7-8.1c-4.4-0.8-5.8-1.2-8.6-2.8c-9.1-5.1-19.7-2.1-19.7,5.4c0,7.9,7.8,15.5,17,15.5l1.8,0
		c6.2,0,8.5-0.2,10.8-1.2C201.1,507.9,202.5,505.2,202.5,500.4L202.5,500.4z M201.5,500.4c0,4.4-1.3,6.8-3.9,8
		c-2.1,1-4.3,1.1-10.4,1.1h-1.8c-8.6,0-16-7.2-16-14.5c0-6.7,9.7-9.3,18.3-4.6c2.9,1.6,4.4,2,8.9,2.9
		C200.6,494,201.5,495.1,201.5,500.4L201.5,500.4z M234.8,382.5c-4.1,1.4-7.1,2.9-9.4,4.4c-2.9,2-4.3,3.7-6.3,7.1
		c-2.4,4.1-3.2,5.3-5.5,7.6c-1.4,1.4-2,1.9-5.9,5.5l-1.8,1.6c-4.2,3.9-6.6,6.5-8.1,9c-1.9,3.2-1.8,5.8,0.8,7.6
		c8.8,6.3,15,7.6,27.4,4.1c5.6-1.6,11.1-3.9,18.9-7.6c-0.3,0.1,8.1-3.9,10.2-4.9c2.9-1.4,5.9-2.6,8.9-3.6c3.4-1,5.7-1.3,10.5-1.3
		c0.5,0,0.7,0,0.9,0c5.9-0.1,9.5-0.9,14.7-3.7c11-6,13.9-6.9,21.8-6.9c3.6,0,5.9-1.8,8.5-5.7c0.1-0.2,1.2-1.8,1.5-2.2
		c1.5-2.2,2.6-3.1,4-3.1c7.8,0,15.3-2,20.4-7.1c1.7-1.7,3.8-2.7,8.7-4.5l1-0.4c4.3-1.6,6.5-2.6,8.5-4.2c2.6-2.1,4-4.8,4-8.4
		c0-16.3,3.5-28.6,11.8-33.6c5.2-3.1,9.7-8,11.1-12c1.7-4.8-1.1-7.9-8.4-7.9c-4.3,0-7.9-1.1-12.6-3.4l-1.3-0.6
		c-1.2-0.6-2.3-1.2-3.5-1.7c-1.7-0.8-3.1-1.1-4.3-1.2c-3-0.1-5.4,1.8-7.7,6.3c-7,13.9-28.9,37.8-43.8,47.8
		c-6.7,4.5-18.6,8.4-38.2,13.4c-4,1-18,4.4-20.6,5C243.5,379.8,238.5,381.2,234.8,382.5L234.8,382.5z M235.2,383.5
		c3.7-1.3,8.6-2.7,16-4.5c2.6-0.6,16.5-4,20.6-5c19.7-5,31.7-8.9,38.5-13.5c15.1-10.1,37.1-34.1,44.2-48.2c2.1-4.2,4.2-5.8,6.7-5.7
		c1.9,0.1,1.2-0.2,8.7,3.4c4.9,2.4,8.6,3.5,13.1,3.5c6.6,0,8.8,2.5,7.4,6.6c-1.3,3.8-5.7,8.5-10.7,11.5
		c-8.7,5.2-12.2,17.8-12.2,34.4c0,5.9-3.2,8.4-11.8,11.6l-1,0.4c-5,1.8-7.2,2.9-9,4.7c-4.9,4.9-12.1,6.9-19.6,6.9
		c-1.8,0-3.1,1.1-4.8,3.5l-1.5,2.2c-2.5,3.7-4.5,5.3-7.7,5.3c-8,0-11.1,1-22.2,7.1c-5,2.7-8.5,3.5-14.2,3.6h-0.9
		c-4.9,0.1-7.3,0.3-10.8,1.4c-3.1,1-6.1,2.2-9,3.6c-2.2,1-10.5,5-10.2,4.9c-7.7,3.7-13.2,5.9-18.7,7.5c-12.1,3.5-18,2.2-26.6-3.9
		c-2.1-1.5-2.2-3.5-0.6-6.3c1.4-2.3,3.8-4.9,7.9-8.8l1.8-1.6c3.9-3.6,4.5-4.1,5.9-5.6c2.4-2.4,3.2-3.6,5.6-7.8
		c1.9-3.2,3.2-4.9,6-6.7C228.2,386.3,231.1,384.9,235.2,383.5L235.2,383.5z M252,387.5c-1.1,0-2.1,0-3.8,0
		c-8.4-0.1-10.8,0.2-14.2,2.9c-0.5,0.4-0.9,0.8-1.4,1.3c-0.2,0.2-8.3,7.7-11.4,10.8c-1.5,1.5-2.9,2.9-4.1,4.3
		c-4.2,4.6-6.9,8.3-7.8,11.1c-1.1,3.6,0.8,5.6,5.8,5.6c9.7,0,14.9-2.1,23.1-8l0.8-0.6c4.1-2.9,6.3-4.3,9.3-5.4l2.3-0.9l0.3-0.1
		c7.6-2.9,10.9-4.3,14.1-6.4c4.4-2.8,6.6-6.1,6.6-10.1c0-3.3-1.3-5.1-3.8-5.7c-1.8-0.4-3.2-0.3-8.5,0.5
		C256,387.3,254.1,387.5,252,387.5L252,387.5z M252,388.5c2.1,0,4.1-0.2,7.4-0.7c5.1-0.8,6.5-0.9,8.1-0.5c2,0.4,3,1.8,3,4.7
		c0,3.7-2.1,6.6-6.2,9.3c-3.2,2-6.4,3.5-14,6.3l-0.3,0.1l-2.3,0.9c-3.1,1.2-5.4,2.6-9.6,5.6l-0.8,0.6c-8,5.8-13,7.8-22.5,7.8
		c-4.4,0-5.7-1.4-4.8-4.3c0.8-2.6,3.5-6.3,7.6-10.8c1.3-1.5,2.7-2.9,4.1-4.3c3.1-3.1,11.3-10.6,11.4-10.8c0.4-0.4,0.9-0.8,1.3-1.2
		c3.1-2.5,5.4-2.9,13.5-2.7C249.9,388.5,250.9,388.5,252,388.5L252,388.5z M364.5,343.2c1.3-3.6,3.4-5.9,14-16
		c1.3-1.2,2.6-2.5,3.9-3.8c2.3-2.3,2.8-4,1.1-4.9c-1-0.6-2.7-0.7-5.8-0.7l-0.7,0c-3,0.1-4,0-4.8-0.3c-1.1-0.4-2.1-1-3.1-1.6
		l-1.4-0.8c-1.4-0.8-2.4-1.3-3.6-1.6c-4.5-1.1-7.8,2.3-12.3,10.4c0.1-0.1-2.1,4-2.7,5c-0.7,1.3-1.6,2.6-2.5,3.8
		c-6,6.6-8.1,12.4-8.1,26.3c0,8.3,3.9,12.4,10.4,13.4c2.1,0.3,4.1,0.4,6.9,0.2l0.6,0c0.5,0,1-0.1,1.5-0.1c4.1,0,6.7-9.5,5.5-16.6
		C362.5,349.9,362.6,348.6,364.5,343.2L364.5,343.2z M363.5,342.8c-1.9,5.6-2,7.1-1,13.2c1.1,6.5-1.3,15.4-4.5,15.4
		c-0.3,0-0.6,0-1,0c-0.4,0-0.8,0-1.2,0.1c-2.8,0.2-4.7,0.2-6.7-0.2c-6.1-1-9.6-4.7-9.6-12.5c0-13.7,2.1-19.2,7.9-25.7
		c1-1.2,1.9-2.5,2.6-3.9c0.6-1,2.8-5.1,2.7-5c4.2-7.7,7.3-10.9,11.1-9.9c1.2,0.3,2.3,0.8,3.3,1.5l1.4,0.8c1.3,0.8,2.2,1.3,3.3,1.7
		c0.9,0.4,2,0.4,5.1,0.3l0.7,0c3,0,4.5,0.1,5.3,0.5c0.8,0.4,0.6,1.4-1.4,3.3c-1.1,1.1-2.3,2.3-3.9,3.7
		C367,336.7,364.9,338.9,363.5,342.8L363.5,342.8z M354.3,355.3c-2.2-2-3-2.5-4.2-2.3c-1.6,0.3-2.1,2.2-2.1,6
		c0,7.6,5.1,10.2,8.8,4.5c2-3,1.9-4.8,0-6.4C356.8,357.2,354.8,355.8,354.3,355.3L354.3,355.3z M352.9,356.8c0.7,0.6,2.7,2,2.6,2
		c1.1,0.9,1.1,1.4-0.4,3.7c-2.5,3.8-5.2,2.4-5.2-3.5c0-2.8,0.3-4,0.5-4.1C350.7,354.9,351.4,355.4,352.9,356.8L352.9,356.8z
		 M575.8,226.6c-3.1,1.5-4.8,2.2-6.5,2.7c-0.8,0.2-1.6,0.4-2.7,0.6c-0.5,0.1-1,0.2-1.7,0.3l-2,0.3c-0.9,0.1-1.5,0.2-3,0.3
		c-3.5,0.2-4.8,0.6-5.6,2.4c-0.9,2.2-0.3,6.1,2.1,12.9c1,3,1.9,6.1,2.7,9.2c0.3,1.1,1.4,5.8,1.7,7c1.5,5.9,2.7,8.9,4.6,10.5
		c2.3,2,5.5,1.2,9.8-2.4c12-10.2,18.9-22.7,21.2-36.3c1.5-8.7,1.7-10.7,1.3-12.7c-0.6-2.7-2.8-2.9-7-0.8c-2.8,1.5-5.8,2.7-8.8,3.6
		l-0.3,0.1C579.5,224.9,578,225.5,575.8,226.6L575.8,226.6z M582,225.2l0.3-0.1c3.1-0.9,6.1-2.1,8.9-3.6c3.7-1.8,5.1-1.7,5.5,0.2
		c0.4,1.8,0.2,3.9-1.3,12.3c-2.2,13.4-9,25.7-20.8,35.7c-4,3.4-6.6,4-8.5,2.4c-1.7-1.4-2.8-4.3-4.3-10l-1.7-7
		c-0.8-3.1-1.7-6.2-2.7-9.3c-2.3-6.6-2.9-10.4-2.1-12.2c0.6-1.3,1.6-1.7,4.7-1.9c1.5-0.1,2.1-0.1,2.9-0.3c1.3-0.2,2.5-0.4,3.8-0.6
		c1.1-0.2,2-0.4,2.8-0.6c1.8-0.5,3.5-1.3,6.7-2.8C578.1,226.5,580,225.7,582,225.2z M571.8,234c-0.5,0.1-1.1,0.2-2.3,0.3l-1.3,0.1
		c-2.9,0.3-4.7,1-5.8,2.7c-1.4,2.1-1.2,5.4,0.7,10.2c3.2,8.3,4.6,11.2,6.7,12.9c2.6,2.2,5.6,1.3,9.9-2.5
		c6.7-5.9,11.3-17.1,11.3-22.8c0-0.7,0-1,0-1.4c-0.1-1.9-0.4-3.2-1.4-4.2c-1.2-1.2-3.2-1.3-5.9-0.4c-1.7,0.6-3.2,1.2-4.7,1.9
		c-0.8,0.4-3,1.5-3.3,1.7C574.3,233.3,573.1,233.7,571.8,234L571.8,234z M569.7,236.3c1.3-0.1,1.9-0.2,2.6-0.4
		c1.5-0.3,2.9-0.9,4.3-1.6c0.4-0.2,2.6-1.3,3.3-1.7c1.5-0.7,2.9-1.3,4.5-1.8c2.1-0.7,3.3-0.6,3.9,0c0.5,0.5,0.7,1.4,0.8,2.8
		c0,0.4,0,0.6,0,1.3c0,5.1-4.4,15.8-10.7,21.3c-3.7,3.2-5.7,3.8-7.3,2.5c-1.7-1.4-3.1-4.3-6.1-12.1c-1.7-4.3-1.8-7-0.9-8.4
		c0.7-1.1,2-1.5,4.4-1.8L569.7,236.3L569.7,236.3z M341.9,147.3c4.2-11.5,3.8-15.1-3.4-19.2c-3.4-1.9-7.9-1.3-13.9,1.4
		c-4.4,1.9-7.4,3.8-17.3,9.9l-2.8,1.7c-2.1,1.3-4,2.1-6,2.6c-3.1,0.8-4.8,0.8-12.7,0.3c-13-0.8-23.3-0.3-39.9,3
		c-10.2,2-14.8,3.8-15.5,6.1c-0.6,2.1,1.5,3.7,6.4,5.9c1.6,0.7,11.4,4.6,14.4,5.9c9.2,4,15.1,8,18,12.7
		c10.8,17.7,16.2,20.8,27.2,16.4c7.4-3,11.4-4.8,15.7-7.6c5.7-3.7,10-8.2,12.9-13.9c1.3-2.6,2.9-5.2,4.7-7.5
		c0.8-1.1,1.7-2.2,2.6-3.2l2.6-3C338.4,154.6,340.4,151.7,341.9,147.3L341.9,147.3z M340.1,146.7c-1.5,4-3.3,6.8-6.8,10.8l-2.6,3
		c-0.9,1.1-1.8,2.2-2.7,3.3c-1.8,2.4-3.4,4.9-4.9,7.8c-2.7,5.4-6.7,9.6-12.1,13.1c-4.1,2.7-8,4.5-15.3,7.4
		c-9.9,4-14.4,1.3-24.8-15.6c-3.1-5.1-9.4-9.3-18.9-13.4c-3.1-1.3-12.9-5.3-14.4-5.9c-3.8-1.7-5.5-2.9-5.3-3.5
		c0.1-0.5,1.1-1.2,3.2-1.9c2.3-0.9,5.9-1.8,10.8-2.8c16.4-3.3,26.6-3.8,39.4-3c8.1,0.5,10,0.5,13.3-0.3c2.3-0.6,4.5-1.6,6.6-2.8
		l2.8-1.7c9.8-6.1,12.8-7.9,17.1-9.8c5.5-2.5,9.5-3,12.1-1.5C343.7,133.4,344,136,340.1,146.7L340.1,146.7z M333.4,146.3
		c3-4.8,3.3-7.8,0.8-9c-2-0.9-5.8-0.4-11.4,1.2c-3.1,0.9-6.4,2.9-10.8,6.1c-1.1,0.8-2.2,1.6-3.7,2.7c-9.8,7.5-12.4,9.2-15.4,9.2
		c-3.7,0-6.5,4.6-6,9.1c0.6,5.1,5.3,7.8,13.1,5.9C314.9,168,325.5,159.1,333.4,146.3L333.4,146.3z M332.6,145.7
		c-7.8,12.6-18.2,21.4-32.7,24.8c-7.3,1.7-11.3-0.6-11.9-5.1c-0.5-3.9,2-7.9,5-7.9c3.4,0,5.9-1.6,16-9.4c1.5-1.1,2.6-2,3.6-2.7
		c4.3-3.1,7.6-5.1,10.5-5.9c5.3-1.6,8.9-2.1,10.6-1.3C335.5,139,335.3,141.3,332.6,145.7L332.6,145.7z M461.2,33.5
		c-11.6-4.1-15.6-4.4-19.6-1.4c-1.3,1-6.5,6.2-7.9,7.5c-2.6,2.3-4.2,5.4-6.9,12.3l-0.6,1.6c-2.8,7.1-4.6,10.5-7.5,13
		c-2.2,1.9-4.6,4.3-8.1,7.8l-1.1,1.1c-8,8.1-10,10.1-12.8,12c-1,0.7-5.6,3.8-5.3,3.6c-2.2,1.5-4.4,3-6.5,4.6
		c-8.4,6.3-13.5,11.9-14.9,17.3c-1.1,4.6,0.6,8.7,5.6,12.3c2.5,1.8,5.4,2.6,10.2,3l1.7,0.1c5,0.4,7,0.7,9.1,1.9
		c0.6,0.4,4.5,2.7,5.8,3.4c6.8,3.9,12.4,5.6,18,4.4c0.9-0.2,1.8-0.4,2.7-0.8l2.1-0.8c0.3-0.1,4.9-1.7,6.3-2.2
		c4.9-1.9,8.3-3.7,10.9-6.1c0.4-0.4,3.5-3.8,4.6-4.9c4-3.8,8.3-5.9,14-5.9c5.4,0,10.7-1.6,17.2-4.7c0.8-0.4,1.7-0.8,2.7-1.3l2.4-1.2
		c1.8-0.9,2.9-1.4,3.9-1.7c1.9-0.6,3.2-2,4.9-4.9c0.2-0.3,1.3-2.3,1.7-2.9c3.2-5.2,6.4-7.6,12.2-7.6c4.4,0.1,8.8-0.5,13-1.8
		c5.7-1.9,9.7-5.1,11.5-10c1.9-5.3,3-20,2.5-34.2c-0.6-16.2-2.9-27.2-6.8-28.5c-3.4-1.1-7.1-0.6-11.2,1.3c-3.1,1.4-5.6,3-11.1,6.9
		c-5.5,3.9-8,5.5-11,6.8C481.9,38.5,475.1,38.5,461.2,33.5L461.2,33.5z M460.8,34.5c14.1,5,21.3,5,32.4,0c3.1-1.4,5.6-3,11.1-6.9
		c5.5-3.9,8-5.5,11-6.8c3.9-1.8,7.3-2.3,10.5-1.2c3.3,1,5.5,12,6.1,27.5c0.5,14.1-0.5,28.7-2.4,33.8c-1.7,4.6-5.5,7.7-10.9,9.4
		c-3.9,1.3-8.2,1.8-12.6,1.8c-6.2,0-9.7,2.6-13.1,8.1l-1.7,2.9c-1.6,2.7-2.8,4-4.4,4.5c-1,0.3-2.2,0.9-4,1.8
		c-0.5,0.2-2.3,1.2-2.4,1.2c-1,0.5-1.9,0.9-2.7,1.3c-6.3,3-11.5,4.6-16.7,4.6c-6,0-10.6,2.2-14.7,6.2c-1.2,1.1-4.2,4.6-4.6,4.9
		c-2.4,2.3-5.7,4.1-10.5,5.9c-1.4,0.5-6,2.1-6.2,2.2c-0.7,0.3-1.4,0.5-2.1,0.8c-0.8,0.3-1.7,0.6-2.5,0.8c-5.3,1.1-10.6-0.5-17.3-4.3
		c-1.3-0.7-5.1-3-5.8-3.4c-2.2-1.3-4.4-1.6-9.5-2l-1.7-0.1c-4.6-0.4-7.4-1.1-9.7-2.8c-4.7-3.4-6.3-7.1-5.3-11.3
		c1.3-5.1,6.3-10.6,14.5-16.7c2-1.5,4-2.9,6.5-4.6c-0.3,0.2,4.3-2.9,5.3-3.6c2.8-2,4.9-4,12.9-12.2c2.9-3.1,6-6.1,9.2-8.9
		c3-2.6,4.9-6.2,7.8-13.4l0.6-1.6c2.6-6.8,4.2-9.8,6.6-12c1.5-1.3,6.7-6.5,7.9-7.4C445.8,30.2,449.6,30.4,460.8,34.5L460.8,34.5z
		 M462,52.1c-0.6-0.4-5.2-3.7-7.2-4.9c-10.3-6.4-17.3-2.7-22.8,15.6c-0.8,2.6-2.4,5.3-5,8.3c-3.7,4.3-8.5,8.5-16.6,14.9
		c-15.9,12.4-16,12.5-19.4,16.4c-4.9,5.8-4.8,10.4,1.5,13.6c12.9,6.5,18.2,8.7,23.6,9.5c6.5,0.9,11.5-1.1,16.6-6.7
		c5.1-5.6,8.8-7.3,17.4-9.4c4.6-1.1,6.9-1.9,9.4-3.5c2.5-1.5,5-2.8,7.7-3.9l1.8-0.8c0.7-0.3,1.3-0.6,1.8-0.8
		c7.1-3.3,11.4-6.2,15-10.7c2.6-3.4,6.2-5,12.2-6.1c0.8-0.2,1.2-0.2,3-0.5c6.5-1.1,9.3-1.9,11.7-4.3c2.5-2.5,3.4-3.6,4-4.7
		c0.2-0.4,0.4-0.7,0.5-1.2c0.1-0.2,0.8-2.1,1.1-2.9c0.8-1.9,1.6-3.7,2.5-5.5c5.5-11.1,6.2-18.1-0.1-27c-3.2-4.5-6.5-4.6-10.2-1.2
		c-1.2,1.1-1.8,1.8-4.4,4.8c-3,3.6-4.7,5.2-6.6,6c-4.9,2.2-13.6,6.5-14.9,7c-2.2,0.8-4.3,1-9.7,1C468.5,55,465.4,54.2,462,52.1z
		 M485.4,55.9c1.4-0.5,10.2-4.9,15-7c2.3-1,4.1-2.7,7.3-6.6c2.5-3,3.1-3.7,4.2-4.7c2.9-2.6,4.8-2.5,7.2,0.9c5.7,8.2,5.2,14.5-0.1,25
		c-1.1,2.2-1.9,4-2.6,5.6c-0.3,0.8-1,2.8-1.1,2.9c-0.2,0.4-0.3,0.7-0.4,0.9c-0.5,0.9-1.4,1.9-3.7,4.3c-2,2-4.5,2.8-10.6,3.8
		c-1.8,0.3-2.2,0.4-3,0.5c-6.5,1.2-10.5,2.9-13.5,6.8c-3.3,4.3-7.4,7-14.2,10.1l-1.8,0.8l-1.8,0.8c-2.7,1.1-5.4,2.5-7.9,4
		c-2.3,1.5-4.4,2.2-8.8,3.2c-8.9,2.1-13,4-18.4,10c-4.7,5.2-9.1,6.9-14.9,6.1c-5-0.7-10.2-2.9-22.9-9.3c-5-2.5-5.1-5.6-0.9-10.5
		c3.2-3.8,3.4-4,19.1-16.2c8.2-6.4,13.2-10.7,16.9-15.2c2.7-3.2,4.5-6.1,5.4-9c5.1-17.2,10.8-20.1,19.8-14.5
		c1.9,1.2,6.5,4.5,7.2,4.9c3.7,2.4,7.2,3.3,14.1,3.3C480.6,57,482.9,56.8,485.4,55.9z M462.3,65.6c-2-1.4-3.7-2.8-5.7-4.5
		c-0.7-0.6-3.5-3.1-4.1-3.7c-2.8-2.4-4.4-3.1-6.2-1.9c-1.9,1.3-3.7,4.9-6.8,13.4c-2.5,6.9-7.3,12.6-14.4,18.3
		c-2.9,2.3-12.2,8.8-13.5,9.9c-3.7,3.1-4.2,5.3-0.9,7.3c0.8,0.5,1.5,0.9,2.2,1.4l2,1.3c1.1,0.8,2.4,1.4,3.6,2
		c5.3,2.3,10.7,0.2,23.7-9.7c4.9-3.7,11-6.9,18.9-10.2c3.8-1.6,17.3-6.6,20-7.7c10-4.2,14-7.7,12.3-12.7c-1-3.1-2.7-4.5-5.2-4.5
		c-1.8,0-2.3,0.2-7.7,2.1C472.6,69.3,467.8,69.5,462.3,65.6L462.3,65.6z M461.7,66.4c5.8,4.2,11,4,19.2,1c5.2-1.9,5.8-2.1,7.4-2.1
		c2,0,3.4,1.1,4.3,3.8c1.4,4.2-2.2,7.5-11.7,11.4c-2.7,1.1-16.2,6.2-20,7.7c-8,3.3-14.1,6.5-19.1,10.3c-12.8,9.6-17.8,11.6-22.7,9.6
		c-1-0.4-2-1-3.5-1.9l-2-1.3l-2.3-1.4c-2.6-1.6-2.3-3,1-5.7c1.3-1.1,10.6-7.6,13.5-9.9c7.2-5.8,12.1-11.7,14.7-18.8
		c3-8.2,4.8-11.8,6.4-12.9c1.2-0.8,2.5-0.3,5,1.8c0.6,0.5,3.4,3.1,4.1,3.7C457.9,63.5,459.7,65,461.7,66.4L461.7,66.4z"/>
</g>
</svg>
